{"glyphs":{"0":{"ha":853,"x_min":0,"x_max":0,"o":"m 242 844 b 426 888 296 874 358 888 b 608 846 493 888 556 874 b 426 989 569 949 507 989 b 242 844 344 989 282 947 z m 608 121 b 797 479 724 181 797 301 b 608 846 797 664 724 786 b 657 479 640 765 657 646 b 608 121 657 314 639 199 z m 242 122 b 194 479 211 200 194 315 b 242 844 194 646 211 764 b 56 479 129 785 56 661 b 242 122 56 303 129 182 z m 426 -17 b 608 121 504 -17 568 19 b 426 79 556 93 493 79 b 242 122 358 79 296 93 b 426 -17 282 21 346 -17 z "},"1":{"ha":643,"x_min":0,"x_max":0,"o":"m 42 0 l 615 0 l 615 97 l 390 97 l 390 972 l 268 972 b 210 793 263 903 240 842 l 274 793 l 274 97 l 42 97 z m 42 665 b 210 793 89 665 160 713 l 42 793 z "},"2":{"ha":715,"x_min":0,"x_max":0,"o":"m 196 869 b 365 900 243 889 300 900 b 535 869 429 900 488 889 b 368 989 507 957 440 989 b 196 869 300 989 228 963 z m 42 681 l 183 681 b 179 753 181 707 179 731 b 196 869 179 800 185 838 b 42 681 100 831 43 760 z m 381 456 b 669 703 528 521 669 558 b 535 869 669 775 618 836 b 547 774 543 843 547 811 b 381 456 547 614 465 539 z m 71 0 l 674 0 l 674 111 l 208 111 b 381 456 219 289 300 376 b 71 82 240 394 97 308 z "},"3":{"ha":764,"x_min":0,"x_max":0,"o":"m 204 872 b 379 901 253 890 313 901 b 551 875 449 901 506 892 b 385 989 522 960 456 989 b 204 872 319 989 243 965 z m 569 107 b 708 294 657 142 708 204 b 474 513 708 439 579 493 l 474 524 b 689 714 572 540 689 588 b 551 875 689 779 643 840 b 567 769 561 846 567 811 b 349 569 567 618 464 576 l 325 568 l 325 465 l 349 464 b 586 221 465 457 586 418 b 569 107 586 176 581 139 z m 49 681 l 181 681 b 179 726 179 696 179 711 b 204 872 179 788 189 835 b 49 681 103 835 44 763 z m 207 106 b 193 207 197 133 193 167 b 196 269 193 226 193 247 l 60 269 b 207 106 54 192 113 136 z m 389 -17 b 569 107 467 -17 538 18 b 393 79 521 89 461 79 b 207 106 322 79 260 88 b 389 -17 238 10 314 -17 z "},"4":{"ha":801,"x_min":0,"x_max":0,"o":"m 299 608 b 536 972 421 725 539 839 l 401 972 b 299 608 396 814 350 708 z m 467 0 l 582 0 l 582 221 l 774 221 l 774 314 l 582 314 l 582 604 l 467 604 l 467 314 l 179 314 b 299 608 201 429 251 515 b 56 289 193 508 86 406 l 56 221 l 467 221 z "},"5":{"ha":794,"x_min":0,"x_max":0,"o":"m 90 428 l 194 428 b 443 569 246 531 333 569 b 567 547 485 569 528 563 b 401 668 533 635 475 668 b 199 444 307 668 215 597 l 196 444 l 229 869 l 667 869 l 667 972 l 135 972 z m 567 103 b 732 326 660 132 732 197 b 567 547 732 442 658 514 b 600 317 589 493 600 418 b 567 103 600 240 592 164 z m 218 101 b 199 222 204 140 199 183 b 200 253 199 233 200 243 l 65 253 b 218 101 68 174 131 126 z m 392 -17 b 567 103 483 -17 536 32 b 399 81 514 86 456 81 b 218 101 335 81 272 88 b 392 -17 243 36 294 -17 z "},"6":{"ha":821,"x_min":0,"x_max":0,"o":"m 250 854 b 431 889 301 878 363 889 b 581 865 485 889 536 881 b 424 989 551 953 493 989 b 250 854 339 989 285 944 z m 601 707 l 733 707 b 581 865 724 782 664 836 b 601 707 594 825 601 772 z m 250 110 b 208 369 228 169 213 253 b 474 538 260 490 358 538 b 588 522 513 538 553 533 b 431 629 561 586 513 629 b 213 396 322 629 236 547 l 207 396 b 206 478 206 422 206 449 b 250 854 206 643 218 768 b 69 475 136 800 69 682 b 250 110 69 261 140 156 z m 593 110 b 751 318 682 144 751 210 b 588 522 751 431 681 496 b 621 303 614 461 621 381 b 593 110 621 224 611 160 z m 419 -17 b 593 110 504 -17 561 25 b 422 81 539 90 479 81 b 250 110 358 81 300 89 b 419 -17 285 17 342 -17 z "},"7":{"ha":604,"x_min":0,"x_max":0,"o":"m 338 531 b 597 946 460 661 592 756 l 597 972 l 0 972 l 0 869 l 468 869 b 338 531 458 768 393 688 z m 128 0 l 260 0 b 338 531 260 249 296 411 b 128 0 229 414 128 268 z "},"8":{"ha":797,"x_min":0,"x_max":0,"o":"m 214 864 b 401 897 264 886 329 897 b 586 865 469 897 535 888 b 401 989 558 943 494 989 b 214 864 304 989 238 935 z m 208 107 b 186 233 193 143 186 186 b 278 494 186 363 225 440 l 471 418 b 624 189 575 376 624 304 b 613 119 624 164 619 142 b 728 296 682 153 728 210 b 535 531 728 418 654 483 l 515 539 l 515 540 b 708 714 597 561 708 610 b 586 865 708 786 660 836 b 603 768 597 838 603 804 b 510 540 603 676 565 590 l 381 592 b 203 800 235 650 203 707 b 214 864 203 822 207 843 b 104 696 146 832 104 778 b 272 497 104 600 164 542 l 272 494 b 69 278 153 451 69 388 b 208 107 69 194 115 138 z m 408 -17 b 613 119 515 -17 588 40 b 408 81 557 93 485 81 b 208 107 326 81 260 89 b 408 -17 239 32 301 -17 z "},"9":{"ha":843,"x_min":0,"x_max":0,"o":"m 589 861 b 408 989 553 957 486 989 b 228 863 324 989 260 949 b 396 894 279 883 339 894 b 589 861 468 894 535 885 z m 233 450 b 200 671 207 513 200 594 b 228 863 200 750 208 814 b 69 653 138 826 69 758 b 233 450 69 539 140 475 z m 592 128 b 774 499 707 190 774 317 b 589 861 774 704 704 813 b 631 607 613 803 626 721 b 350 435 581 485 474 435 b 233 450 310 435 269 439 b 399 339 261 382 311 339 b 628 578 517 339 607 426 l 632 578 b 633 496 633 551 633 525 b 592 128 633 336 621 213 z m 243 104 b 221 265 229 146 221 199 l 89 265 b 243 104 90 189 153 133 z m 407 -17 b 592 128 501 -17 557 32 b 392 83 536 99 468 83 b 243 104 338 83 288 90 b 407 -17 274 18 332 -17 z "},"\r":{"ha":833,"x_min":0,"x_max":0,"o":""}," ":{"ha":347,"x_min":0,"x_max":0,"o":""},"A":{"ha":896,"x_min":0,"x_max":0,"o":"m 368 863 b 447 874 392 869 418 874 b 526 863 476 874 503 869 l 511 926 b 447 989 501 964 485 989 b 383 926 410 989 393 964 z m 28 0 l 153 0 l 226 297 l 668 297 l 743 0 l 868 0 l 675 706 b 526 863 653 786 601 840 l 644 394 l 251 394 l 368 863 b 219 706 293 840 242 786 z "},"Á":{"ha":896,"x_min":0,"x_max":0,"o":"m 365 1051 l 372 1051 l 653 1242 l 653 1250 l 482 1250 z m 368 863 b 447 874 392 869 418 874 b 526 863 476 874 503 869 l 511 926 b 447 989 501 964 485 989 b 383 926 410 989 393 964 z m 28 0 l 153 0 l 226 297 l 668 297 l 743 0 l 868 0 l 675 706 b 526 863 653 786 601 840 l 644 394 l 251 394 l 368 863 b 219 706 293 840 242 786 z "},"Â":{"ha":896,"x_min":0,"x_max":0,"o":"m 508 1250 l 385 1250 l 260 1060 l 267 1060 l 447 1176 l 626 1060 l 633 1060 z m 368 863 b 447 874 392 869 418 874 b 526 863 476 874 503 869 l 511 926 b 447 989 501 964 485 989 b 383 926 410 989 393 964 z m 28 0 l 153 0 l 226 297 l 668 297 l 743 0 l 868 0 l 675 706 b 526 863 653 786 601 840 l 644 394 l 251 394 l 368 863 b 219 706 293 840 242 786 z "},"Ä":{"ha":896,"x_min":0,"x_max":0,"o":"m 272 1090 l 397 1090 l 397 1219 l 272 1219 z m 494 1090 l 622 1090 l 622 1219 l 494 1219 z m 368 863 b 447 874 392 869 418 874 b 526 863 476 874 503 869 l 511 926 b 447 989 501 964 485 989 b 383 926 410 989 393 964 z m 28 0 l 153 0 l 226 297 l 668 297 l 743 0 l 868 0 l 675 706 b 526 863 653 786 601 840 l 644 394 l 251 394 l 368 863 b 219 706 293 840 242 786 z "},"À":{"ha":896,"x_min":0,"x_max":0,"o":"m 514 1051 l 397 1250 l 226 1250 l 226 1242 l 507 1051 z m 368 863 b 447 874 392 869 418 874 b 526 863 476 874 503 869 l 511 926 b 447 989 501 964 485 989 b 383 926 410 989 393 964 z m 28 0 l 153 0 l 226 297 l 668 297 l 743 0 l 868 0 l 675 706 b 526 863 653 786 601 840 l 644 394 l 251 394 l 368 863 b 219 706 293 840 242 786 z "},"Å":{"ha":896,"x_min":0,"x_max":0,"o":"m 447 1071 b 544 1169 500 1071 544 1115 b 447 1267 544 1222 500 1267 b 349 1169 393 1267 349 1222 b 447 1071 349 1115 393 1071 z m 368 863 b 447 874 392 869 418 874 b 526 863 476 874 503 869 l 511 926 b 447 989 501 964 485 989 b 383 926 410 989 393 964 z m 28 0 l 153 0 l 226 297 l 668 297 l 743 0 l 868 0 l 675 706 b 526 863 653 786 601 840 l 644 394 l 251 394 l 368 863 b 219 706 293 840 242 786 z "},"Ã":{"ha":896,"x_min":0,"x_max":0,"o":"m 288 1089 l 451 1154 b 365 1222 438 1194 404 1222 b 276 1136 322 1222 276 1190 b 288 1089 276 1121 281 1106 z m 538 1086 b 626 1171 586 1086 626 1124 b 615 1219 626 1185 622 1201 l 451 1154 b 538 1086 467 1115 499 1086 z m 368 863 b 447 874 392 869 418 874 b 526 863 476 874 503 869 l 511 926 b 447 989 501 964 485 989 b 383 926 410 989 393 964 z m 28 0 l 153 0 l 226 297 l 668 297 l 743 0 l 868 0 l 675 706 b 526 863 653 786 601 840 l 644 394 l 251 394 l 368 863 b 219 706 293 840 242 786 z "},"Æ":{"ha":1361,"x_min":0,"x_max":0,"o":"m 763 544 l 763 872 l 1278 872 l 1278 972 l 501 972 b 393 892 464 972 413 960 l 385 864 b 460 872 408 869 432 872 l 646 872 l 646 683 b 763 544 646 593 675 553 z m 28 0 l 146 0 l 242 344 l 646 344 l 646 0 l 1292 0 l 1292 100 l 763 100 l 763 443 l 268 443 l 385 864 b 238 714 310 843 260 792 z m 763 443 l 1251 443 l 1251 543 l 806 543 b 763 544 790 543 775 543 z "},"B":{"ha":888,"x_min":0,"x_max":0,"o":"m 111 0 l 533 0 b 696 99 631 0 676 40 b 644 93 679 94 663 93 l 231 93 l 231 449 l 650 449 b 706 442 669 449 688 446 l 706 553 b 650 546 689 549 669 546 l 231 546 l 231 879 l 618 879 b 697 869 646 879 672 876 b 521 972 679 932 626 972 l 111 972 z m 706 553 b 829 710 781 572 829 631 b 697 869 829 799 775 850 b 706 807 703 851 706 829 z m 696 99 b 839 274 782 115 839 179 b 706 442 839 363 785 424 l 706 176 b 696 99 706 149 703 122 z "},"C":{"ha":950,"x_min":0,"x_max":0,"o":"m 249 832 b 485 881 318 865 399 881 b 707 836 565 881 642 865 b 493 989 669 928 603 989 b 249 832 376 989 297 932 z m 751 625 l 903 625 b 707 836 889 717 813 792 b 751 625 732 776 746 704 z m 257 133 b 190 493 207 232 190 367 b 249 832 190 631 208 747 b 49 493 131 775 49 665 b 257 133 49 300 129 188 z m 710 128 b 915 339 814 167 883 238 l 758 339 b 710 128 751 263 738 189 z m 492 -17 b 710 128 603 -17 669 43 b 483 93 646 106 571 93 b 257 133 399 93 322 106 b 492 -17 303 43 376 -17 z "},"Ç":{"ha":950,"x_min":0,"x_max":0,"o":"m 249 832 b 485 881 318 865 399 881 b 707 836 565 881 642 865 b 493 989 669 928 603 989 b 249 832 376 989 297 932 z m 751 625 l 903 625 b 707 836 889 717 813 792 b 751 625 732 776 746 704 z m 257 133 b 190 493 207 232 190 367 b 249 832 190 631 208 747 b 49 493 131 775 49 665 b 257 133 49 300 129 188 z m 710 128 b 915 339 814 167 883 238 l 758 339 b 710 128 751 263 738 189 z m 492 -17 b 710 128 603 -17 669 43 b 483 93 646 106 571 93 b 257 133 399 93 322 106 b 492 -17 303 43 376 -17 z m 444 -294 b 567 -172 513 -294 567 -240 b 444 -50 567 -104 513 -50 z "},"D":{"ha":964,"x_min":0,"x_max":0,"o":"m 111 0 l 424 0 b 681 126 524 0 615 38 b 506 97 628 107 569 97 l 233 97 l 233 875 l 492 875 b 707 833 572 875 646 861 b 424 972 646 940 546 972 l 111 972 z m 681 126 b 915 496 822 179 915 301 b 707 833 915 663 836 776 b 774 496 750 761 774 653 b 681 126 774 325 738 206 z "},"Ð":{"ha":1008,"x_min":0,"x_max":0,"o":"m 156 0 l 468 0 b 725 126 568 0 660 38 b 550 97 672 107 614 97 l 278 97 l 278 444 l 542 444 l 542 542 l 278 542 l 278 875 l 536 875 b 751 833 617 875 690 861 b 468 972 690 940 590 972 l 156 972 l 156 542 l 14 542 l 14 444 l 156 444 z m 725 126 b 960 496 867 179 960 301 b 751 833 960 663 881 776 b 818 496 794 761 818 653 b 725 126 818 325 782 206 z "},"E":{"ha":826,"x_min":0,"x_max":0,"o":"m 228 553 l 228 872 l 743 872 l 743 972 l 111 972 l 111 696 b 228 553 111 606 140 563 z m 228 451 b 271 454 240 453 256 454 l 717 454 l 717 551 l 271 551 b 228 553 256 551 240 551 z m 111 0 l 757 0 l 757 100 l 228 100 l 228 451 b 111 307 140 438 111 382 z "},"É":{"ha":826,"x_min":0,"x_max":0,"o":"m 356 1051 l 363 1051 l 643 1242 l 643 1250 l 472 1250 z m 228 553 l 228 872 l 743 872 l 743 972 l 111 972 l 111 696 b 228 553 111 606 140 563 z m 228 451 b 271 454 240 453 256 454 l 717 454 l 717 551 l 271 551 b 228 553 256 551 240 551 z m 111 0 l 757 0 l 757 100 l 228 100 l 228 451 b 111 307 140 438 111 382 z "},"Ê":{"ha":826,"x_min":0,"x_max":0,"o":"m 499 1250 l 375 1250 l 250 1060 l 257 1060 l 438 1176 l 617 1060 l 624 1060 z m 228 553 l 228 872 l 743 872 l 743 972 l 111 972 l 111 696 b 228 553 111 606 140 563 z m 228 451 b 271 454 240 453 256 454 l 717 454 l 717 551 l 271 551 b 228 553 256 551 240 551 z m 111 0 l 757 0 l 757 100 l 228 100 l 228 451 b 111 307 140 438 111 382 z "},"Ë":{"ha":826,"x_min":0,"x_max":0,"o":"m 263 1090 l 388 1090 l 388 1219 l 263 1219 z m 485 1090 l 613 1090 l 613 1219 l 485 1219 z m 228 553 l 228 872 l 743 872 l 743 972 l 111 972 l 111 696 b 228 553 111 606 140 563 z m 228 451 b 271 454 240 453 256 454 l 717 454 l 717 551 l 271 551 b 228 553 256 551 240 551 z m 111 0 l 757 0 l 757 100 l 228 100 l 228 451 b 111 307 140 438 111 382 z "},"È":{"ha":826,"x_min":0,"x_max":0,"o":"m 504 1051 l 388 1250 l 217 1250 l 217 1242 l 497 1051 z m 228 553 l 228 872 l 743 872 l 743 972 l 111 972 l 111 696 b 228 553 111 606 140 563 z m 228 451 b 271 454 240 453 256 454 l 717 454 l 717 551 l 271 551 b 228 553 256 551 240 551 z m 111 0 l 757 0 l 757 100 l 228 100 l 228 451 b 111 307 140 438 111 382 z "},"F":{"ha":782,"x_min":0,"x_max":0,"o":"m 232 553 l 232 874 l 740 874 l 740 972 l 111 972 l 111 676 b 232 553 111 606 147 561 z m 232 451 b 261 453 242 453 251 453 l 715 453 l 715 551 l 261 551 b 232 553 251 551 242 551 z m 111 0 l 232 0 l 232 451 b 111 324 147 444 111 406 z "},"G":{"ha":965,"x_min":0,"x_max":0,"o":"m 260 838 b 499 885 331 869 414 885 b 735 846 582 885 665 872 b 504 989 694 931 624 989 b 260 838 394 989 313 933 z m 776 668 l 910 668 b 735 846 890 754 824 811 b 776 668 760 793 772 732 z m 267 135 b 190 488 213 232 190 365 b 260 838 190 631 214 750 b 49 488 136 779 49 668 b 267 135 49 308 133 193 z m 757 136 b 917 382 865 186 917 272 l 917 500 l 513 500 l 513 414 l 797 414 l 797 329 b 757 136 797 258 785 192 z m 506 -17 b 757 136 631 -17 714 44 b 503 90 693 107 608 90 b 267 135 415 90 335 104 b 506 -17 317 44 393 -17 z "},"H":{"ha":974,"x_min":0,"x_max":0,"o":"m 231 557 l 231 972 l 111 972 l 111 700 b 231 557 111 621 157 569 z m 743 557 b 863 700 817 569 863 621 l 863 972 l 743 972 z m 231 454 b 268 457 242 456 256 457 l 706 457 b 743 454 718 457 731 456 l 743 557 b 706 554 731 556 718 554 l 268 554 b 231 557 256 554 242 556 z m 111 0 l 231 0 l 231 454 b 111 315 157 442 111 392 z m 743 0 l 863 0 l 863 317 b 743 454 863 392 817 442 z "},"I":{"ha":365,"x_min":0,"x_max":0,"o":"m 124 0 l 240 0 l 240 972 l 124 972 z "},"Í":{"ha":365,"x_min":0,"x_max":0,"o":"m 100 1051 l 107 1051 l 388 1242 l 388 1250 l 217 1250 z m 124 0 l 240 0 l 240 972 l 124 972 z "},"Î":{"ha":365,"x_min":0,"x_max":0,"o":"m 243 1250 l 119 1250 l -6 1060 l 1 1060 l 182 1176 l 361 1060 l 368 1060 z m 124 0 l 240 0 l 240 972 l 124 972 z "},"Ï":{"ha":365,"x_min":0,"x_max":0,"o":"m 7 1090 l 132 1090 l 132 1219 l 7 1219 z m 229 1090 l 357 1090 l 357 1219 l 229 1219 z m 124 0 l 240 0 l 240 972 l 124 972 z "},"Ì":{"ha":365,"x_min":0,"x_max":0,"o":"m 249 1051 l 132 1250 l -39 1250 l -39 1242 l 242 1051 z m 124 0 l 240 0 l 240 972 l 124 972 z "},"J":{"ha":810,"x_min":0,"x_max":0,"o":"m 551 117 b 688 367 632 151 688 224 l 688 972 l 568 972 l 568 228 b 551 117 568 188 563 149 z m 185 115 b 164 264 171 156 164 206 b 165 318 164 282 164 299 l 28 318 b 185 115 32 217 92 150 z m 369 -17 b 551 117 464 -17 524 35 b 369 86 499 93 435 86 b 185 115 300 86 236 96 b 369 -17 215 26 278 -17 z "},"K":{"ha":856,"x_min":0,"x_max":0,"o":"m 111 0 l 229 0 l 229 451 l 319 451 b 378 449 339 451 358 451 b 374 501 375 467 374 483 b 375 553 374 519 374 538 b 319 550 358 550 340 550 l 229 550 l 229 972 l 111 972 z m 375 553 b 522 647 421 560 463 582 l 819 969 l 819 972 l 671 972 l 499 792 b 375 553 407 696 382 633 z m 726 0 l 883 0 l 883 3 l 538 363 b 378 449 479 424 429 443 b 549 178 393 358 449 278 z "},"L":{"ha":806,"x_min":0,"x_max":0,"o":"m 111 0 l 764 0 l 764 99 l 228 99 l 228 972 l 111 972 z "},"Ł":{"ha":838,"x_min":0,"x_max":0,"o":"m 108 0 l 761 0 l 761 99 l 225 99 l 225 467 l 489 647 l 489 765 l 225 585 l 225 972 l 108 972 l 108 504 l -69 382 l -69 264 l 108 386 z "},"M":{"ha":1328,"x_min":0,"x_max":0,"o":"m 231 861 b 314 874 256 869 283 874 b 374 868 336 874 356 872 l 367 918 b 296 989 360 967 333 989 b 231 915 258 989 231 963 z m 1097 861 l 1097 915 b 1032 989 1097 963 1069 989 b 961 918 994 989 968 967 l 954 868 b 1014 874 972 872 992 874 b 1097 861 1044 874 1072 869 z m 590 117 l 521 675 b 374 868 507 782 460 847 l 449 289 b 590 117 461 192 511 136 z m 738 117 b 879 289 815 136 867 192 l 954 868 b 807 675 868 847 821 782 z m 111 0 l 231 0 l 231 861 b 111 682 154 838 111 775 z m 1097 0 l 1217 0 l 1217 682 b 1097 861 1217 775 1174 838 z m 664 -17 b 728 40 700 -17 724 6 l 738 117 b 664 108 715 111 690 108 b 590 117 638 108 613 111 l 600 40 b 664 -17 604 6 629 -17 z "},"N":{"ha":1060,"x_min":0,"x_max":0,"o":"m 231 860 b 319 874 257 869 288 874 b 376 869 340 874 358 872 l 363 931 b 296 989 356 963 335 989 b 231 915 253 989 231 956 z m 829 113 b 949 264 900 136 949 188 l 949 972 l 829 972 z m 683 104 l 544 696 b 376 869 518 808 461 857 l 513 278 b 683 104 538 165 597 117 z m 111 0 l 231 0 l 231 860 b 111 686 160 836 111 782 z m 764 -17 b 829 58 806 -17 829 13 l 829 113 b 740 100 803 104 772 100 b 683 104 719 100 701 101 l 696 49 b 764 -17 706 10 724 -17 z "},"Ñ":{"ha":1060,"x_min":0,"x_max":0,"o":"m 371 1047 l 535 1113 b 449 1181 521 1153 488 1181 b 360 1094 406 1181 360 1149 b 371 1047 360 1079 364 1064 z m 621 1044 b 710 1129 669 1044 710 1082 b 699 1178 710 1143 706 1160 l 535 1113 b 621 1044 550 1074 582 1044 z m 231 860 b 319 874 257 869 288 874 b 376 869 340 874 358 872 l 363 931 b 296 989 356 963 335 989 b 231 915 253 989 231 956 z m 829 113 b 949 264 900 136 949 188 l 949 972 l 829 972 z m 683 104 l 544 696 b 376 869 518 808 461 857 l 513 278 b 683 104 538 165 597 117 z m 111 0 l 231 0 l 231 860 b 111 686 160 836 111 782 z m 764 -17 b 829 58 806 -17 829 13 l 829 113 b 740 100 803 104 772 100 b 683 104 719 100 701 101 l 696 49 b 764 -17 706 10 724 -17 z "},"O":{"ha":1038,"x_min":0,"x_max":0,"o":"m 260 832 b 524 883 333 865 424 883 b 776 836 621 883 707 868 b 524 989 724 931 642 989 b 260 832 399 989 314 929 z m 776 138 b 989 493 911 197 989 317 b 776 836 989 661 911 776 b 847 493 825 747 847 626 b 776 138 847 353 825 228 z m 271 138 b 190 493 218 228 190 353 b 260 832 190 625 213 743 b 49 493 129 771 49 656 b 271 138 49 317 133 199 z m 524 -17 b 776 138 642 -17 725 42 b 524 90 707 106 621 90 b 271 138 428 90 342 106 b 524 -17 326 42 411 -17 z "},"Ó":{"ha":1038,"x_min":0,"x_max":0,"o":"m 442 1051 l 449 1051 l 729 1242 l 729 1250 l 558 1250 z m 260 832 b 524 883 333 865 424 883 b 776 836 621 883 707 868 b 524 989 724 931 642 989 b 260 832 399 989 314 929 z m 776 138 b 989 493 911 197 989 317 b 776 836 989 661 911 776 b 847 493 825 747 847 626 b 776 138 847 353 825 228 z m 271 138 b 190 493 218 228 190 353 b 260 832 190 625 213 743 b 49 493 129 771 49 656 b 271 138 49 317 133 199 z m 524 -17 b 776 138 642 -17 725 42 b 524 90 707 106 621 90 b 271 138 428 90 342 106 b 524 -17 326 42 411 -17 z "},"Ô":{"ha":1038,"x_min":0,"x_max":0,"o":"m 585 1250 l 461 1250 l 336 1060 l 343 1060 l 524 1176 l 703 1060 l 710 1060 z m 260 832 b 524 883 333 865 424 883 b 776 836 621 883 707 868 b 524 989 724 931 642 989 b 260 832 399 989 314 929 z m 776 138 b 989 493 911 197 989 317 b 776 836 989 661 911 776 b 847 493 825 747 847 626 b 776 138 847 353 825 228 z m 271 138 b 190 493 218 228 190 353 b 260 832 190 625 213 743 b 49 493 129 771 49 656 b 271 138 49 317 133 199 z m 524 -17 b 776 138 642 -17 725 42 b 524 90 707 106 621 90 b 271 138 428 90 342 106 b 524 -17 326 42 411 -17 z "},"Ö":{"ha":1038,"x_min":0,"x_max":0,"o":"m 349 1090 l 474 1090 l 474 1219 l 349 1219 z m 571 1090 l 699 1090 l 699 1219 l 571 1219 z m 260 832 b 524 883 333 865 424 883 b 776 836 621 883 707 868 b 524 989 724 931 642 989 b 260 832 399 989 314 929 z m 776 138 b 989 493 911 197 989 317 b 776 836 989 661 911 776 b 847 493 825 747 847 626 b 776 138 847 353 825 228 z m 271 138 b 190 493 218 228 190 353 b 260 832 190 625 213 743 b 49 493 129 771 49 656 b 271 138 49 317 133 199 z m 524 -17 b 776 138 642 -17 725 42 b 524 90 707 106 621 90 b 271 138 428 90 342 106 b 524 -17 326 42 411 -17 z "},"Ò":{"ha":1038,"x_min":0,"x_max":0,"o":"m 590 1051 l 474 1250 l 303 1250 l 303 1242 l 583 1051 z m 260 832 b 524 883 333 865 424 883 b 776 836 621 883 707 868 b 524 989 724 931 642 989 b 260 832 399 989 314 929 z m 776 138 b 989 493 911 197 989 317 b 776 836 989 661 911 776 b 847 493 825 747 847 626 b 776 138 847 353 825 228 z m 271 138 b 190 493 218 228 190 353 b 260 832 190 625 213 743 b 49 493 129 771 49 656 b 271 138 49 317 133 199 z m 524 -17 b 776 138 642 -17 725 42 b 524 90 707 106 621 90 b 271 138 428 90 342 106 b 524 -17 326 42 411 -17 z "},"Ő":{"ha":1038,"x_min":0,"x_max":0,"o":"m 344 1051 l 351 1051 l 617 1242 l 617 1250 l 447 1250 z m 556 1051 l 563 1051 l 828 1242 l 828 1250 l 658 1250 z m 260 832 b 524 883 333 865 424 883 b 776 836 621 883 707 868 b 524 989 724 931 642 989 b 260 832 399 989 314 929 z m 776 138 b 989 493 911 197 989 317 b 776 836 989 661 911 776 b 847 493 825 747 847 626 b 776 138 847 353 825 228 z m 271 138 b 190 493 218 228 190 353 b 260 832 190 625 213 743 b 49 493 129 771 49 656 b 271 138 49 317 133 199 z m 524 -17 b 776 138 642 -17 725 42 b 524 90 707 106 621 90 b 271 138 428 90 342 106 b 524 -17 326 42 411 -17 z "},"Ø":{"ha":1013,"x_min":0,"x_max":0,"o":"m 183 -18 l 282 118 b 524 -17 338 33 419 -17 b 776 138 642 -17 725 42 b 524 90 707 106 621 90 b 290 129 436 90 357 103 l 788 814 b 847 493 829 728 847 615 b 776 138 847 353 825 228 b 989 493 911 197 989 317 b 797 826 989 653 919 764 l 897 964 l 861 989 l 764 856 b 524 989 711 939 633 989 b 260 832 399 989 314 929 b 524 883 333 865 424 883 b 757 844 611 883 690 871 l 258 160 b 190 493 214 249 190 364 b 260 832 190 625 213 743 b 49 493 129 771 49 656 b 250 147 49 326 125 211 l 147 7 z "},"Õ":{"ha":1038,"x_min":0,"x_max":0,"o":"m 364 1089 l 528 1154 b 442 1222 514 1194 481 1222 b 353 1136 399 1222 353 1190 b 364 1089 353 1121 357 1106 z m 614 1086 b 703 1171 663 1086 703 1124 b 692 1219 703 1185 699 1201 l 528 1154 b 614 1086 543 1115 575 1086 z m 260 832 b 524 883 333 865 424 883 b 776 836 621 883 707 868 b 524 989 724 931 642 989 b 260 832 399 989 314 929 z m 776 138 b 989 493 911 197 989 317 b 776 836 989 661 911 776 b 847 493 825 747 847 626 b 776 138 847 353 825 228 z m 271 138 b 190 493 218 228 190 353 b 260 832 190 625 213 743 b 49 493 129 771 49 656 b 271 138 49 317 133 199 z m 524 -17 b 776 138 642 -17 725 42 b 524 90 707 106 621 90 b 271 138 428 90 342 106 b 524 -17 326 42 411 -17 z "},"Œ":{"ha":1493,"x_min":0,"x_max":0,"o":"m 894 539 l 894 872 l 1410 872 l 1410 972 l 778 972 l 778 842 l 775 842 b 525 989 724 933 643 989 b 260 832 397 989 311 931 b 522 885 333 867 422 885 b 778 836 621 885 707 868 l 778 682 b 894 539 778 592 807 549 z m 268 139 b 193 493 218 228 193 349 b 260 832 193 629 214 746 b 49 493 129 771 49 656 b 268 139 49 318 132 199 z m 894 439 b 938 442 907 440 922 442 l 1383 442 l 1383 538 l 938 538 b 894 539 922 538 907 538 z m 525 -18 b 776 131 644 -18 726 36 l 778 131 l 778 0 l 1424 0 l 1424 100 l 894 100 l 894 439 b 778 293 807 425 778 368 l 778 138 b 522 90 707 107 621 90 b 268 139 426 90 340 107 b 525 -18 324 39 410 -18 z "},"P":{"ha":872,"x_min":0,"x_max":0,"o":"m 111 0 l 233 0 l 233 357 l 465 357 b 692 476 582 357 654 400 b 564 461 649 464 603 461 l 233 461 l 233 874 l 564 874 b 686 861 601 874 644 871 b 457 972 646 929 574 972 l 111 972 z m 692 476 b 844 669 772 499 844 551 b 686 861 844 790 769 840 b 728 669 715 810 728 743 b 692 476 728 593 717 526 z "},"Þ":{"ha":893,"x_min":0,"x_max":0,"o":"m 111 0 l 233 0 l 233 201 l 465 201 b 690 319 582 201 653 244 b 564 304 647 307 603 304 l 233 304 l 233 718 l 564 718 b 686 706 601 718 644 715 b 457 817 646 774 574 817 l 233 817 l 233 972 l 111 972 z m 690 319 b 844 514 772 342 844 394 b 686 706 844 635 769 685 b 728 514 715 654 728 588 b 690 319 728 436 717 371 z "},"Q":{"ha":1075,"x_min":0,"x_max":0,"o":"m 260 832 b 524 883 333 865 424 883 b 776 836 621 883 707 868 b 524 989 724 931 642 989 b 260 832 399 989 314 929 z m 778 138 b 989 493 911 199 989 317 b 776 836 989 661 911 776 b 847 493 825 747 847 626 b 778 138 847 353 826 228 z m 271 138 b 190 493 218 228 190 353 b 260 832 190 625 213 743 b 49 493 129 771 49 656 b 271 138 49 317 133 199 z m 524 -17 b 778 138 644 -17 726 42 b 524 90 707 106 622 90 b 271 138 428 90 342 106 b 524 -17 326 42 411 -17 z m 1026 -17 l 1026 104 b 968 101 1007 103 988 101 b 779 136 900 101 833 113 b 1026 -17 811 18 919 -19 z "},"R":{"ha":897,"x_min":0,"x_max":0,"o":"m 111 0 l 231 0 l 231 415 l 642 415 b 703 408 664 415 685 413 l 703 519 b 642 513 683 515 664 513 l 231 513 l 231 881 l 582 881 b 693 867 622 881 660 876 b 518 972 672 935 619 972 l 111 972 z m 703 519 b 832 692 782 540 832 600 b 693 867 832 786 779 843 b 703 785 700 843 703 815 z m 703 1 l 828 1 l 828 233 b 703 408 828 333 781 390 z "},"S":{"ha":846,"x_min":0,"x_max":0,"o":"m 204 857 b 413 892 258 881 329 892 b 624 858 490 892 564 881 b 417 989 592 946 522 989 b 204 857 303 989 231 932 z m 640 679 l 775 679 b 624 858 772 765 713 825 b 643 731 636 824 643 781 b 640 679 643 714 642 697 z m 660 121 b 776 293 738 157 776 217 b 568 519 776 399 694 469 l 381 593 b 193 793 251 643 193 685 b 204 857 193 815 197 838 b 89 699 131 826 89 774 b 297 496 89 600 176 543 l 485 424 b 672 194 608 376 672 321 b 660 121 672 168 668 143 z m 221 114 b 194 261 203 154 194 203 b 197 322 194 281 194 301 l 63 322 b 221 114 64 214 124 149 z m 440 -17 b 660 121 558 -17 632 42 b 449 82 607 96 536 82 b 221 114 363 82 285 92 b 440 -17 260 29 335 -17 z "},"Š":{"ha":846,"x_min":0,"x_max":0,"o":"m 356 1060 l 479 1060 l 604 1250 l 597 1250 l 417 1133 l 238 1250 l 231 1250 z m 204 857 b 413 892 258 881 329 892 b 624 858 490 892 564 881 b 417 989 592 946 522 989 b 204 857 303 989 231 932 z m 640 679 l 775 679 b 624 858 772 765 713 825 b 643 731 636 824 643 781 b 640 679 643 714 642 697 z m 660 121 b 776 293 738 157 776 217 b 568 519 776 399 694 469 l 381 593 b 193 793 251 643 193 685 b 204 857 193 815 197 838 b 89 699 131 826 89 774 b 297 496 89 600 176 543 l 485 424 b 672 194 608 376 672 321 b 660 121 672 168 668 143 z m 221 114 b 194 261 203 154 194 203 b 197 322 194 281 194 301 l 63 322 b 221 114 64 214 124 149 z m 440 -17 b 660 121 558 -17 632 42 b 449 82 607 96 536 82 b 221 114 363 82 285 92 b 440 -17 260 29 335 -17 z "},"T":{"ha":874,"x_min":0,"x_max":0,"o":"m 28 875 l 378 875 b 247 972 372 942 324 972 l 28 972 z m 496 875 l 846 875 l 846 972 l 626 972 b 496 875 550 972 501 942 z m 378 0 l 496 0 l 496 875 l 378 875 z "},"U":{"ha":968,"x_min":0,"x_max":0,"o":"m 240 135 b 231 196 233 154 231 175 l 231 972 l 111 972 l 111 346 b 240 135 111 247 156 176 z m 725 135 b 857 346 813 176 857 249 l 857 972 l 735 972 l 735 196 b 725 135 735 175 732 154 z m 482 -17 b 725 135 614 -17 699 50 b 482 90 665 106 583 90 b 240 135 382 90 300 106 b 482 -17 268 50 353 -17 z "},"Ú":{"ha":968,"x_min":0,"x_max":0,"o":"m 399 1033 l 406 1033 l 686 1224 l 686 1232 l 515 1232 z m 240 135 b 231 196 233 154 231 175 l 231 972 l 111 972 l 111 346 b 240 135 111 247 156 176 z m 725 135 b 857 346 813 176 857 249 l 857 972 l 735 972 l 735 196 b 725 135 735 175 732 154 z m 482 -17 b 725 135 614 -17 699 50 b 482 90 665 106 583 90 b 240 135 382 90 300 106 b 482 -17 268 50 353 -17 z "},"Û":{"ha":968,"x_min":0,"x_max":0,"o":"m 542 1232 l 418 1232 l 293 1042 l 300 1042 l 481 1158 l 660 1042 l 667 1042 z m 240 135 b 231 196 233 154 231 175 l 231 972 l 111 972 l 111 346 b 240 135 111 247 156 176 z m 725 135 b 857 346 813 176 857 249 l 857 972 l 735 972 l 735 196 b 725 135 735 175 732 154 z m 482 -17 b 725 135 614 -17 699 50 b 482 90 665 106 583 90 b 240 135 382 90 300 106 b 482 -17 268 50 353 -17 z "},"Ü":{"ha":968,"x_min":0,"x_max":0,"o":"m 306 1072 l 431 1072 l 431 1201 l 306 1201 z m 528 1072 l 656 1072 l 656 1201 l 528 1201 z m 240 135 b 231 196 233 154 231 175 l 231 972 l 111 972 l 111 346 b 240 135 111 247 156 176 z m 725 135 b 857 346 813 176 857 249 l 857 972 l 735 972 l 735 196 b 725 135 735 175 732 154 z m 482 -17 b 725 135 614 -17 699 50 b 482 90 665 106 583 90 b 240 135 382 90 300 106 b 482 -17 268 50 353 -17 z "},"Ù":{"ha":968,"x_min":0,"x_max":0,"o":"m 547 1033 l 431 1232 l 260 1232 l 260 1224 l 540 1033 z m 240 135 b 231 196 233 154 231 175 l 231 972 l 111 972 l 111 346 b 240 135 111 247 156 176 z m 725 135 b 857 346 813 176 857 249 l 857 972 l 735 972 l 735 196 b 725 135 735 175 732 154 z m 482 -17 b 725 135 614 -17 699 50 b 482 90 665 106 583 90 b 240 135 382 90 300 106 b 482 -17 268 50 353 -17 z "},"Ű":{"ha":968,"x_min":0,"x_max":0,"o":"m 301 1033 l 308 1033 l 574 1224 l 574 1232 l 404 1232 z m 513 1033 l 519 1033 l 785 1224 l 785 1232 l 615 1232 z m 240 135 b 231 196 233 154 231 175 l 231 972 l 111 972 l 111 346 b 240 135 111 247 156 176 z m 725 135 b 857 346 813 176 857 249 l 857 972 l 735 972 l 735 196 b 725 135 735 175 732 154 z m 482 -17 b 725 135 614 -17 699 50 b 482 90 665 106 583 90 b 240 135 382 90 300 106 b 482 -17 268 50 353 -17 z "},"V":{"ha":929,"x_min":0,"x_max":0,"o":"m 386 108 l 176 972 l 49 972 l 232 267 b 386 108 253 185 308 131 z m 544 108 b 699 267 622 131 678 185 l 881 972 l 753 972 z m 465 -17 b 529 46 503 -17 521 8 l 544 108 b 465 99 519 103 493 99 b 386 108 438 99 411 103 l 401 46 b 465 -17 411 8 428 -17 z "},"W":{"ha":1417,"x_min":0,"x_max":0,"o":"m 638 857 b 708 864 660 861 683 864 b 779 857 733 864 757 861 l 772 928 b 708 989 768 964 743 989 b 644 928 672 989 649 964 z m 296 106 l 178 972 l 49 972 l 149 290 b 296 106 164 190 208 126 z m 1121 106 b 1268 290 1208 126 1253 190 l 1368 972 l 1239 972 z m 443 108 b 582 297 526 132 572 197 l 638 857 b 493 683 556 838 501 782 z m 974 108 l 924 683 b 779 857 915 782 861 838 l 835 297 b 974 108 844 197 890 132 z m 371 -17 b 439 54 407 -17 435 6 l 443 108 b 364 99 419 101 393 99 b 296 106 339 99 317 101 l 303 57 b 371 -17 310 10 332 -17 z m 1046 -17 b 1114 57 1085 -17 1107 10 l 1121 106 b 1053 99 1100 101 1078 99 b 974 108 1024 99 997 101 l 978 54 b 1046 -17 982 6 1010 -17 z "},"X":{"ha":882,"x_min":0,"x_max":0,"o":"m 381 554 b 315 743 375 614 358 676 l 168 972 l 21 972 l 21 969 l 247 644 b 381 554 279 597 322 567 z m 499 554 b 638 644 558 564 603 593 l 858 971 l 858 972 l 722 972 l 571 742 b 499 554 528 676 507 613 z m 379 433 b 439 439 399 438 418 439 b 499 433 460 439 479 438 b 494 492 496 453 494 472 b 499 554 494 511 496 532 b 439 549 481 550 460 549 b 381 554 418 549 399 550 b 383 492 383 533 383 513 b 379 433 383 471 382 453 z m -14 0 l 131 0 l 300 251 b 379 433 349 324 371 378 b 204 308 315 421 258 383 l -14 1 z m 754 0 l 896 0 l 896 1 l 675 310 b 499 433 619 388 564 422 b 588 242 507 378 532 322 z "},"Y":{"ha":849,"x_min":0,"x_max":0,"o":"m 365 482 b 319 629 364 533 357 561 l 132 972 l 0 972 l 0 971 l 231 582 b 365 482 263 529 308 496 z m 475 482 b 604 581 531 494 571 528 l 849 971 l 849 972 l 717 972 l 521 629 b 475 482 482 561 476 533 z m 365 0 l 475 0 l 475 482 b 421 476 458 478 440 476 b 365 482 401 476 382 478 z "},"Ý":{"ha":849,"x_min":0,"x_max":0,"o":"m 336 1001 l 343 1001 l 624 1192 l 624 1200 l 453 1200 z m 365 482 b 319 629 364 533 357 561 l 132 972 l 0 972 l 0 971 l 231 582 b 365 482 263 529 308 496 z m 475 482 b 604 581 531 494 571 528 l 849 971 l 849 972 l 717 972 l 521 629 b 475 482 482 561 476 533 z m 365 0 l 475 0 l 475 482 b 421 476 458 478 440 476 b 365 482 401 476 382 478 z "},"Ÿ":{"ha":849,"x_min":0,"x_max":0,"o":"m 243 1040 l 368 1040 l 368 1169 l 243 1169 z m 465 1040 l 593 1040 l 593 1169 l 465 1169 z m 365 482 b 319 629 364 533 357 561 l 132 972 l 0 972 l 0 971 l 231 582 b 365 482 263 529 308 496 z m 475 482 b 604 581 531 494 571 528 l 849 971 l 849 972 l 717 972 l 521 629 b 475 482 482 561 476 533 z m 365 0 l 475 0 l 475 482 b 421 476 458 478 440 476 b 365 482 401 476 382 478 z "},"Z":{"ha":800,"x_min":0,"x_max":0,"o":"m 399 492 b 731 890 524 575 654 665 l 731 972 l 89 972 l 89 876 l 601 876 b 399 492 567 688 481 589 z m 83 0 l 731 1 l 731 99 l 215 99 b 399 492 233 293 314 392 b 83 78 263 400 131 318 z "},"Ž":{"ha":800,"x_min":0,"x_max":0,"o":"m 343 1060 l 467 1060 l 592 1250 l 585 1250 l 404 1133 l 225 1250 l 218 1250 z m 399 492 b 731 890 524 575 654 665 l 731 972 l 89 972 l 89 876 l 601 876 b 399 492 567 688 481 589 z m 83 0 l 731 1 l 731 99 l 215 99 b 399 492 233 293 314 392 b 83 78 263 400 131 318 z "},"a":{"ha":717,"x_min":0,"x_max":0,"o":"m 508 590 b 371 711 499 657 454 711 b 225 594 293 711 246 669 b 364 611 267 606 314 611 b 508 590 415 611 465 606 z m 81 451 l 214 451 b 225 594 211 507 215 556 b 81 451 139 569 79 522 z m 328 -17 b 506 161 414 -17 481 43 l 507 161 l 510 0 l 626 0 l 626 418 b 508 590 626 515 578 567 b 510 565 510 582 510 574 l 510 561 b 364 369 507 458 438 414 l 507 392 l 507 176 b 249 78 454 89 350 78 b 200 81 232 78 215 79 b 328 -17 215 14 261 -17 z m 200 81 b 193 140 196 99 193 118 b 364 369 193 271 281 319 l 304 360 b 69 192 136 333 69 276 b 200 81 69 122 124 90 z "},"á":{"ha":717,"x_min":0,"x_max":0,"o":"m 281 774 l 288 774 l 568 964 l 568 972 l 397 972 z m 508 590 b 371 711 499 657 454 711 b 225 594 293 711 246 669 b 364 611 267 606 314 611 b 508 590 415 611 465 606 z m 81 451 l 214 451 b 225 594 211 507 215 556 b 81 451 139 569 79 522 z m 328 -17 b 506 161 414 -17 481 43 l 507 161 l 510 0 l 626 0 l 626 418 b 508 590 626 515 578 567 b 510 565 510 582 510 574 l 510 561 b 364 369 507 458 438 414 l 507 392 l 507 176 b 249 78 454 89 350 78 b 200 81 232 78 215 79 b 328 -17 215 14 261 -17 z m 200 81 b 193 140 196 99 193 118 b 364 369 193 271 281 319 l 304 360 b 69 192 136 333 69 276 b 200 81 69 122 124 90 z "},"â":{"ha":717,"x_min":0,"x_max":0,"o":"m 424 972 l 300 972 l 175 782 l 182 782 l 363 899 l 542 782 l 549 782 z m 508 590 b 371 711 499 657 454 711 b 225 594 293 711 246 669 b 364 611 267 606 314 611 b 508 590 415 611 465 606 z m 81 451 l 214 451 b 225 594 211 507 215 556 b 81 451 139 569 79 522 z m 328 -17 b 506 161 414 -17 481 43 l 507 161 l 510 0 l 626 0 l 626 418 b 508 590 626 515 578 567 b 510 565 510 582 510 574 l 510 561 b 364 369 507 458 438 414 l 507 392 l 507 176 b 249 78 454 89 350 78 b 200 81 232 78 215 79 b 328 -17 215 14 261 -17 z m 200 81 b 193 140 196 99 193 118 b 364 369 193 271 281 319 l 304 360 b 69 192 136 333 69 276 b 200 81 69 122 124 90 z "},"ä":{"ha":717,"x_min":0,"x_max":0,"o":"m 188 813 l 313 813 l 313 942 l 188 942 z m 410 813 l 538 813 l 538 942 l 410 942 z m 508 590 b 371 711 499 657 454 711 b 225 594 293 711 246 669 b 364 611 267 606 314 611 b 508 590 415 611 465 606 z m 81 451 l 214 451 b 225 594 211 507 215 556 b 81 451 139 569 79 522 z m 328 -17 b 506 161 414 -17 481 43 l 507 161 l 510 0 l 626 0 l 626 418 b 508 590 626 515 578 567 b 510 565 510 582 510 574 l 510 561 b 364 369 507 458 438 414 l 507 392 l 507 176 b 249 78 454 89 350 78 b 200 81 232 78 215 79 b 328 -17 215 14 261 -17 z m 200 81 b 193 140 196 99 193 118 b 364 369 193 271 281 319 l 304 360 b 69 192 136 333 69 276 b 200 81 69 122 124 90 z "},"à":{"ha":717,"x_min":0,"x_max":0,"o":"m 429 774 l 313 972 l 142 972 l 142 964 l 422 774 z m 508 590 b 371 711 499 657 454 711 b 225 594 293 711 246 669 b 364 611 267 606 314 611 b 508 590 415 611 465 606 z m 81 451 l 214 451 b 225 594 211 507 215 556 b 81 451 139 569 79 522 z m 328 -17 b 506 161 414 -17 481 43 l 507 161 l 510 0 l 626 0 l 626 418 b 508 590 626 515 578 567 b 510 565 510 582 510 574 l 510 561 b 364 369 507 458 438 414 l 507 392 l 507 176 b 249 78 454 89 350 78 b 200 81 232 78 215 79 b 328 -17 215 14 261 -17 z m 200 81 b 193 140 196 99 193 118 b 364 369 193 271 281 319 l 304 360 b 69 192 136 333 69 276 b 200 81 69 122 124 90 z "},"å":{"ha":717,"x_min":0,"x_max":0,"o":"m 363 793 b 460 892 415 793 460 838 b 363 989 460 944 415 989 b 264 892 308 989 264 944 b 363 793 264 838 308 793 z m 508 590 b 371 711 499 657 454 711 b 225 594 293 711 246 669 b 364 611 267 606 314 611 b 508 590 415 611 465 606 z m 81 451 l 214 451 b 225 594 211 507 215 556 b 81 451 139 569 79 522 z m 328 -17 b 506 161 414 -17 481 43 l 507 161 l 510 0 l 626 0 l 626 418 b 508 590 626 515 578 567 b 510 565 510 582 510 574 l 510 561 b 364 369 507 458 438 414 l 507 392 l 507 176 b 249 78 454 89 350 78 b 200 81 232 78 215 79 b 328 -17 215 14 261 -17 z m 200 81 b 193 140 196 99 193 118 b 364 369 193 271 281 319 l 304 360 b 69 192 136 333 69 276 b 200 81 69 122 124 90 z "},"ã":{"ha":717,"x_min":0,"x_max":0,"o":"m 203 811 l 367 876 b 281 944 353 917 319 944 b 192 858 238 944 192 913 b 203 811 192 843 196 828 z m 453 808 b 542 893 501 808 542 846 b 531 942 542 907 538 924 l 367 876 b 453 808 382 838 414 808 z m 508 590 b 371 711 499 657 454 711 b 225 594 293 711 246 669 b 364 611 267 606 314 611 b 508 590 415 611 465 606 z m 81 451 l 214 451 b 225 594 211 507 215 556 b 81 451 139 569 79 522 z m 328 -17 b 506 161 414 -17 481 43 l 507 161 l 510 0 l 626 0 l 626 418 b 508 590 626 515 578 567 b 510 565 510 582 510 574 l 510 561 b 364 369 507 458 438 414 l 507 392 l 507 176 b 249 78 454 89 350 78 b 200 81 232 78 215 79 b 328 -17 215 14 261 -17 z m 200 81 b 193 140 196 99 193 118 b 364 369 193 271 281 319 l 304 360 b 69 192 136 333 69 276 b 200 81 69 122 124 90 z "},"æ":{"ha":1203,"x_min":0,"x_max":0,"o":"m 508 590 b 365 711 497 657 447 711 b 221 593 290 711 243 669 b 363 611 263 604 311 611 b 508 590 414 611 465 606 z m 1004 578 b 840 711 976 667 922 711 b 669 579 757 711 701 668 b 833 608 717 599 772 608 b 1004 578 900 608 957 597 z m 81 451 l 210 451 b 221 593 207 507 211 554 b 81 451 139 568 83 519 z m 339 -14 b 540 201 428 -14 531 57 b 674 104 567 157 611 124 b 639 325 649 165 640 243 l 1149 325 b 1004 578 1156 446 1104 533 b 1024 411 1017 533 1024 478 l 640 411 b 669 579 644 479 654 535 b 593 532 640 567 614 551 b 508 590 572 560 543 578 b 510 565 510 582 510 574 l 510 561 b 363 369 507 456 436 413 l 507 392 l 507 336 b 536 207 507 286 517 243 b 249 75 481 100 349 75 b 208 76 235 75 221 75 b 339 -14 226 18 272 -14 z m 208 76 b 200 136 204 94 200 114 b 363 369 200 272 282 321 b 69 189 128 332 69 267 b 208 76 69 115 128 85 z m 1006 101 b 1153 228 1078 122 1136 161 l 1026 228 b 1006 101 1025 178 1018 136 z m 842 -17 b 1006 101 918 -17 976 24 b 844 82 956 88 900 82 b 674 104 776 82 719 89 b 842 -17 703 31 756 -17 z "},"b":{"ha":826,"x_min":0,"x_max":0,"o":"m 438 -17 b 603 107 522 -17 574 29 b 471 83 561 90 515 83 b 226 189 339 83 251 139 l 226 506 b 471 611 251 556 339 611 b 603 588 515 611 561 604 b 438 711 574 665 522 711 b 228 519 318 711 257 618 l 226 519 l 226 972 l 111 972 l 111 0 l 226 0 l 226 175 l 228 175 b 438 -17 257 76 318 -17 z m 603 107 b 771 351 696 142 771 218 b 603 588 771 479 696 554 b 636 350 626 526 636 444 b 603 107 636 253 626 169 z "},"c":{"ha":754,"x_min":0,"x_max":0,"o":"m 554 578 b 394 711 522 676 464 711 b 224 579 319 711 258 678 b 397 604 276 597 336 604 b 554 578 449 604 504 596 z m 226 113 b 194 349 206 168 194 246 b 224 579 194 449 206 524 b 56 349 126 544 56 475 b 226 113 56 219 126 147 z m 581 425 l 717 425 b 554 578 700 500 633 550 b 581 425 568 538 576 488 z m 557 106 b 719 250 640 129 696 176 l 581 250 b 557 106 579 190 571 143 z m 396 -17 b 557 106 464 -17 525 14 b 397 86 511 92 458 86 b 226 113 336 86 278 94 b 396 -17 258 21 317 -17 z "},"ç":{"ha":754,"x_min":0,"x_max":0,"o":"m 554 578 b 394 711 522 676 464 711 b 224 579 319 711 258 678 b 397 604 276 597 336 604 b 554 578 449 604 504 596 z m 226 113 b 194 349 206 168 194 246 b 224 579 194 449 206 524 b 56 349 126 544 56 475 b 226 113 56 219 126 147 z m 581 425 l 717 425 b 554 578 700 500 633 550 b 581 425 568 538 576 488 z m 557 106 b 719 250 640 129 696 176 l 581 250 b 557 106 579 190 571 143 z m 396 -17 b 557 106 464 -17 525 14 b 397 86 511 92 458 86 b 226 113 336 86 278 94 b 396 -17 258 21 317 -17 z m 343 -294 b 465 -172 411 -294 465 -240 b 343 -50 465 -104 411 -50 z "},"d":{"ha":818,"x_min":0,"x_max":0,"o":"m 389 -17 b 597 172 507 -17 569 75 l 599 172 l 599 0 l 714 0 l 714 972 l 599 972 l 599 524 l 597 524 b 389 711 568 621 506 711 b 224 588 304 711 253 665 b 356 611 265 604 311 611 b 599 508 486 611 571 557 l 599 186 b 356 83 571 138 486 83 b 224 107 311 83 265 90 b 389 -17 253 29 304 -17 z m 224 107 b 190 350 200 169 190 253 b 224 588 190 444 200 526 b 56 351 131 554 56 479 b 224 107 56 218 131 142 z "},"ð":{"ha":794,"x_min":0,"x_max":0,"o":"m 576 113 b 739 438 683 156 739 267 b 449 896 739 629 628 796 l 551 967 l 511 1021 l 379 929 b 149 989 310 960 232 979 l 129 900 b 285 864 182 893 235 881 l 139 763 l 178 708 l 357 832 b 593 536 467 776 556 685 l 581 536 b 397 711 550 647 493 711 b 231 582 331 711 272 678 b 376 607 275 597 321 607 b 600 507 469 607 546 576 b 614 363 610 463 614 415 b 576 113 614 246 600 168 z m 236 108 b 194 349 210 165 194 244 b 231 582 194 451 207 526 b 56 349 115 542 56 458 b 236 108 56 233 115 147 z m 407 -17 b 576 113 472 -17 538 18 b 406 85 531 93 474 85 b 236 108 339 85 283 93 b 407 -17 275 19 340 -17 z "},"e":{"ha":751,"x_min":0,"x_max":0,"o":"m 553 578 b 389 711 525 667 471 711 b 218 579 306 711 250 668 b 382 608 265 599 321 608 b 553 578 449 608 506 597 z m 222 104 b 188 325 197 165 189 243 l 697 325 b 553 578 704 446 653 533 b 572 411 565 533 572 478 l 189 411 b 218 579 193 479 203 535 b 56 336 118 538 56 454 b 222 104 56 219 108 140 z m 554 101 b 701 228 626 122 685 161 l 575 228 b 554 101 574 178 567 136 z m 390 -17 b 554 101 467 -17 525 24 b 393 82 504 88 449 82 b 222 104 325 82 268 89 b 390 -17 251 31 304 -17 z "},"é":{"ha":751,"x_min":0,"x_max":0,"o":"m 293 774 l 300 774 l 581 964 l 581 972 l 410 972 z m 553 578 b 389 711 525 667 471 711 b 218 579 306 711 250 668 b 382 608 265 599 321 608 b 553 578 449 608 506 597 z m 222 104 b 188 325 197 165 189 243 l 697 325 b 553 578 704 446 653 533 b 572 411 565 533 572 478 l 189 411 b 218 579 193 479 203 535 b 56 336 118 538 56 454 b 222 104 56 219 108 140 z m 554 101 b 701 228 626 122 685 161 l 575 228 b 554 101 574 178 567 136 z m 390 -17 b 554 101 467 -17 525 24 b 393 82 504 88 449 82 b 222 104 325 82 268 89 b 390 -17 251 31 304 -17 z "},"ê":{"ha":751,"x_min":0,"x_max":0,"o":"m 436 972 l 313 972 l 188 782 l 194 782 l 375 899 l 554 782 l 561 782 z m 553 578 b 389 711 525 667 471 711 b 218 579 306 711 250 668 b 382 608 265 599 321 608 b 553 578 449 608 506 597 z m 222 104 b 188 325 197 165 189 243 l 697 325 b 553 578 704 446 653 533 b 572 411 565 533 572 478 l 189 411 b 218 579 193 479 203 535 b 56 336 118 538 56 454 b 222 104 56 219 108 140 z m 554 101 b 701 228 626 122 685 161 l 575 228 b 554 101 574 178 567 136 z m 390 -17 b 554 101 467 -17 525 24 b 393 82 504 88 449 82 b 222 104 325 82 268 89 b 390 -17 251 31 304 -17 z "},"ë":{"ha":751,"x_min":0,"x_max":0,"o":"m 200 813 l 325 813 l 325 942 l 200 942 z m 422 813 l 550 813 l 550 942 l 422 942 z m 553 578 b 389 711 525 667 471 711 b 218 579 306 711 250 668 b 382 608 265 599 321 608 b 553 578 449 608 506 597 z m 222 104 b 188 325 197 165 189 243 l 697 325 b 553 578 704 446 653 533 b 572 411 565 533 572 478 l 189 411 b 218 579 193 479 203 535 b 56 336 118 538 56 454 b 222 104 56 219 108 140 z m 554 101 b 701 228 626 122 685 161 l 575 228 b 554 101 574 178 567 136 z m 390 -17 b 554 101 467 -17 525 24 b 393 82 504 88 449 82 b 222 104 325 82 268 89 b 390 -17 251 31 304 -17 z "},"è":{"ha":751,"x_min":0,"x_max":0,"o":"m 442 774 l 325 972 l 154 972 l 154 964 l 435 774 z m 553 578 b 389 711 525 667 471 711 b 218 579 306 711 250 668 b 382 608 265 599 321 608 b 553 578 449 608 506 597 z m 222 104 b 188 325 197 165 189 243 l 697 325 b 553 578 704 446 653 533 b 572 411 565 533 572 478 l 189 411 b 218 579 193 479 203 535 b 56 336 118 538 56 454 b 222 104 56 219 108 140 z m 554 101 b 701 228 626 122 685 161 l 575 228 b 554 101 574 178 567 136 z m 390 -17 b 554 101 467 -17 525 24 b 393 82 504 88 449 82 b 222 104 325 82 268 89 b 390 -17 251 31 304 -17 z "},"f":{"ha":476,"x_min":0,"x_max":0,"o":"m 267 861 b 388 876 301 872 342 876 b 449 874 408 876 414 876 l 449 989 b 267 861 336 989 286 944 z m 140 0 l 258 0 l 258 611 l 444 611 l 444 694 l 258 694 l 258 760 b 267 861 258 799 261 832 b 140 694 189 839 142 786 l 42 694 l 42 611 l 140 611 z "},"g":{"ha":811,"x_min":0,"x_max":0,"o":"m 582 -164 b 721 69 664 -128 721 -57 l 721 694 l 599 694 l 599 524 l 597 524 b 389 711 568 621 506 711 b 222 589 304 711 253 664 b 356 611 265 604 311 611 b 599 508 486 611 571 557 l 599 203 b 356 100 571 154 486 100 b 224 124 311 100 265 107 b 389 0 253 46 304 0 b 597 189 507 0 569 92 l 599 189 l 599 -39 b 582 -164 599 -87 593 -129 z m 224 124 b 190 358 200 185 190 267 b 222 589 190 447 200 528 b 56 360 131 554 56 482 b 224 124 56 232 131 157 z m 236 -174 b 218 -31 224 -135 217 -87 l 71 -31 b 236 -174 76 -93 138 -146 z m 408 -294 b 582 -164 496 -294 556 -250 b 408 -194 531 -186 471 -194 b 236 -174 343 -194 285 -186 b 408 -294 264 -254 322 -294 z "},"h":{"ha":786,"x_min":0,"x_max":0,"o":"m 111 0 l 232 0 l 232 506 b 451 604 258 554 339 604 b 569 585 490 604 532 599 b 436 711 556 672 511 711 b 233 517 326 711 263 617 l 232 517 l 232 972 l 111 972 z m 574 0 l 696 0 l 696 413 b 569 585 696 507 640 560 b 574 525 572 567 574 547 z "},"i":{"ha":342,"x_min":0,"x_max":0,"o":"m 104 832 l 238 832 l 238 972 l 104 972 z m 111 0 l 231 0 l 231 694 l 111 694 z "},"ı":{"ha":342,"x_min":0,"x_max":0,"o":"m 111 0 l 231 0 l 231 694 l 111 694 z "},"í":{"ha":342,"x_min":0,"x_max":0,"o":"m 89 774 l 96 774 l 376 964 l 376 972 l 206 972 z m 111 0 l 231 0 l 231 694 l 111 694 z "},"î":{"ha":342,"x_min":0,"x_max":0,"o":"m 232 972 l 108 972 l -17 782 l -10 782 l 171 899 l 350 782 l 357 782 z m 111 0 l 231 0 l 231 694 l 111 694 z "},"ï":{"ha":342,"x_min":0,"x_max":0,"o":"m -4 813 l 121 813 l 121 942 l -4 942 z m 218 813 l 346 813 l 346 942 l 218 942 z m 111 0 l 231 0 l 231 694 l 111 694 z "},"ì":{"ha":342,"x_min":0,"x_max":0,"o":"m 238 774 l 121 972 l -50 972 l -50 964 l 231 774 z m 111 0 l 231 0 l 231 694 l 111 694 z "},"j":{"ha":358,"x_min":0,"x_max":0,"o":"m 122 832 l 256 832 l 256 972 l 122 972 z m 125 -164 b 249 18 199 -140 249 -85 l 249 694 l 129 694 l 129 -85 b 125 -164 129 -114 128 -140 z m -69 -290 b 125 -164 58 -303 110 -267 b -69 -168 71 -181 3 -179 z "},"ȷ":{"ha":371,"x_min":0,"x_max":0,"o":"m 129 694 l 129 -85 b 125 -164 129 -114 128 -140 b 249 18 199 -140 249 -85 l 249 694 z m -69 -168 l -69 -290 b 125 -164 58 -303 110 -267 b -69 -168 71 -181 3 -179 z "},"k":{"ha":696,"x_min":0,"x_max":0,"o":"m 111 0 l 225 0 l 225 315 l 285 315 b 324 314 297 315 310 315 b 318 372 319 332 318 351 b 321 424 318 389 319 406 b 285 422 310 422 297 422 l 225 422 l 225 972 l 111 972 z m 321 424 b 451 486 364 426 403 438 l 661 694 l 500 694 l 418 606 b 321 424 354 535 329 478 z m 544 0 l 703 0 l 474 244 b 324 314 429 293 374 308 b 422 142 336 257 365 207 z "},"l":{"ha":340,"x_min":0,"x_max":0,"o":"m 111 0 l 229 0 l 229 972 l 111 972 z "},"ł":{"ha":340,"x_min":0,"x_max":0,"o":"m 378 721 l 229 619 l 229 972 l 111 972 l 111 538 l -24 446 l -24 328 l 111 419 l 111 0 l 229 0 l 229 501 l 378 603 z "},"m":{"ha":1214,"x_min":0,"x_max":0,"o":"m 111 0 l 229 0 l 229 507 b 446 606 256 556 336 606 b 560 588 483 606 524 600 b 431 711 546 672 501 711 b 231 519 325 711 260 618 l 229 519 l 229 694 l 111 694 z m 564 0 l 686 0 l 686 414 b 661 511 686 453 676 485 b 883 606 697 560 779 606 b 997 588 921 606 961 600 b 868 711 983 672 939 711 b 658 517 761 711 694 618 l 657 517 b 560 588 633 550 599 574 b 564 525 563 568 564 549 z m 1001 0 l 1124 0 l 1124 414 b 997 588 1124 510 1067 563 b 1001 525 1000 568 1001 549 z "},"n":{"ha":776,"x_min":0,"x_max":0,"o":"m 111 0 l 229 0 l 229 507 b 446 607 256 556 336 607 b 560 589 483 607 522 601 b 431 711 546 674 501 711 b 232 524 326 711 263 621 l 229 524 l 229 694 l 111 694 z m 564 0 l 686 0 l 686 414 b 560 589 686 510 629 563 b 564 525 563 569 564 549 z "},"ñ":{"ha":776,"x_min":0,"x_max":0,"o":"m 232 811 l 396 876 b 310 944 382 917 349 944 b 221 858 267 944 221 913 b 232 811 221 843 225 828 z m 482 808 b 571 893 531 808 571 846 b 560 942 571 907 567 924 l 396 876 b 482 808 411 838 443 808 z m 111 0 l 229 0 l 229 507 b 446 607 256 556 336 607 b 560 589 483 607 522 601 b 431 711 546 674 501 711 b 232 524 326 711 263 621 l 229 524 l 229 694 l 111 694 z m 564 0 l 686 0 l 686 414 b 560 589 686 510 629 563 b 564 525 563 569 564 549 z "},"o":{"ha":808,"x_min":0,"x_max":0,"o":"m 229 581 b 407 607 278 597 338 607 b 579 581 472 607 531 597 b 407 711 542 676 478 711 b 229 581 335 711 268 678 z m 236 108 b 194 349 210 165 194 244 b 229 581 194 450 207 526 b 56 349 114 542 56 458 b 236 108 56 233 115 147 z m 575 108 b 753 349 693 147 753 233 b 579 581 753 457 692 540 b 614 349 601 525 614 450 b 575 108 614 243 599 165 z m 407 -17 b 575 108 471 -17 535 17 b 407 85 528 93 471 85 b 236 108 339 85 283 93 b 407 -17 275 19 340 -17 z "},"ó":{"ha":808,"x_min":0,"x_max":0,"o":"m 321 774 l 328 774 l 608 964 l 608 972 l 438 972 z m 229 581 b 407 607 278 597 338 607 b 579 581 472 607 531 597 b 407 711 542 676 478 711 b 229 581 335 711 268 678 z m 236 108 b 194 349 210 165 194 244 b 229 581 194 450 207 526 b 56 349 114 542 56 458 b 236 108 56 233 115 147 z m 575 108 b 753 349 693 147 753 233 b 579 581 753 457 692 540 b 614 349 601 525 614 450 b 575 108 614 243 599 165 z m 407 -17 b 575 108 471 -17 535 17 b 407 85 528 93 471 85 b 236 108 339 85 283 93 b 407 -17 275 19 340 -17 z "},"ô":{"ha":808,"x_min":0,"x_max":0,"o":"m 464 972 l 340 972 l 215 782 l 222 782 l 403 899 l 582 782 l 589 782 z m 229 581 b 407 607 278 597 338 607 b 579 581 472 607 531 597 b 407 711 542 676 478 711 b 229 581 335 711 268 678 z m 236 108 b 194 349 210 165 194 244 b 229 581 194 450 207 526 b 56 349 114 542 56 458 b 236 108 56 233 115 147 z m 575 108 b 753 349 693 147 753 233 b 579 581 753 457 692 540 b 614 349 601 525 614 450 b 575 108 614 243 599 165 z m 407 -17 b 575 108 471 -17 535 17 b 407 85 528 93 471 85 b 236 108 339 85 283 93 b 407 -17 275 19 340 -17 z "},"ö":{"ha":808,"x_min":0,"x_max":0,"o":"m 228 813 l 353 813 l 353 942 l 228 942 z m 450 813 l 578 813 l 578 942 l 450 942 z m 229 581 b 407 607 278 597 338 607 b 579 581 472 607 531 597 b 407 711 542 676 478 711 b 229 581 335 711 268 678 z m 236 108 b 194 349 210 165 194 244 b 229 581 194 450 207 526 b 56 349 114 542 56 458 b 236 108 56 233 115 147 z m 575 108 b 753 349 693 147 753 233 b 579 581 753 457 692 540 b 614 349 601 525 614 450 b 575 108 614 243 599 165 z m 407 -17 b 575 108 471 -17 535 17 b 407 85 528 93 471 85 b 236 108 339 85 283 93 b 407 -17 275 19 340 -17 z "},"ò":{"ha":808,"x_min":0,"x_max":0,"o":"m 469 774 l 353 972 l 182 972 l 182 964 l 463 774 z m 229 581 b 407 607 278 597 338 607 b 579 581 472 607 531 597 b 407 711 542 676 478 711 b 229 581 335 711 268 678 z m 236 108 b 194 349 210 165 194 244 b 229 581 194 450 207 526 b 56 349 114 542 56 458 b 236 108 56 233 115 147 z m 575 108 b 753 349 693 147 753 233 b 579 581 753 457 692 540 b 614 349 601 525 614 450 b 575 108 614 243 599 165 z m 407 -17 b 575 108 471 -17 535 17 b 407 85 528 93 471 85 b 236 108 339 85 283 93 b 407 -17 275 19 340 -17 z "},"ő":{"ha":808,"x_min":0,"x_max":0,"o":"m 224 774 l 231 774 l 496 964 l 496 972 l 326 972 z m 435 774 l 442 774 l 707 964 l 707 972 l 538 972 z m 229 581 b 407 607 278 597 338 607 b 579 581 472 607 531 597 b 407 711 542 676 478 711 b 229 581 335 711 268 678 z m 236 108 b 194 349 210 165 194 244 b 229 581 194 450 207 526 b 56 349 114 542 56 458 b 236 108 56 233 115 147 z m 575 108 b 753 349 693 147 753 233 b 579 581 753 457 692 540 b 614 349 601 525 614 450 b 575 108 614 243 599 165 z m 407 -17 b 575 108 471 -17 535 17 b 407 85 528 93 471 85 b 236 108 339 85 283 93 b 407 -17 275 19 340 -17 z "},"ø":{"ha":808,"x_min":0,"x_max":0,"o":"m 169 -19 l 247 86 b 407 -17 286 14 346 -17 b 575 108 471 -17 535 17 b 406 85 528 93 471 85 b 258 101 349 85 300 90 l 589 554 b 614 349 604 503 614 435 b 575 108 614 243 599 165 b 753 349 693 147 753 233 b 601 572 753 450 700 529 l 686 689 l 651 713 l 571 601 b 407 711 532 682 472 711 b 229 581 335 711 268 678 b 406 607 278 597 338 607 b 560 586 464 607 515 600 l 226 131 b 194 349 206 185 194 257 b 229 581 194 450 207 526 b 56 349 114 542 56 458 b 215 115 56 240 108 157 l 135 4 z "},"õ":{"ha":808,"x_min":0,"x_max":0,"o":"m 243 811 l 407 876 b 321 944 393 917 360 944 b 232 858 278 944 232 913 b 243 811 232 843 236 828 z m 493 808 b 582 893 542 808 582 846 b 571 942 582 907 578 924 l 407 876 b 493 808 422 838 454 808 z m 229 581 b 407 607 278 597 338 607 b 579 581 472 607 531 597 b 407 711 542 676 478 711 b 229 581 335 711 268 678 z m 236 108 b 194 349 210 165 194 244 b 229 581 194 450 207 526 b 56 349 114 542 56 458 b 236 108 56 233 115 147 z m 575 108 b 753 349 693 147 753 233 b 579 581 753 457 692 540 b 614 349 601 525 614 450 b 575 108 614 243 599 165 z m 407 -17 b 575 108 471 -17 535 17 b 407 85 528 93 471 85 b 236 108 339 85 283 93 b 407 -17 275 19 340 -17 z "},"œ":{"ha":1310,"x_min":0,"x_max":0,"o":"m 579 579 b 407 711 542 675 478 711 b 229 581 335 711 268 678 b 406 607 278 597 338 607 b 579 579 474 607 532 597 z m 1111 575 b 943 711 1083 665 1029 711 b 776 579 861 711 807 668 b 940 608 824 599 879 608 b 1111 575 1007 608 1064 597 z m 236 108 b 194 349 210 165 194 244 b 229 581 194 450 207 526 b 56 349 114 542 56 458 b 236 108 56 233 115 147 z m 781 104 b 746 325 756 165 747 243 l 1256 325 b 1111 575 1263 440 1211 531 b 1131 411 1124 532 1131 476 l 747 411 b 776 579 751 479 761 535 b 679 514 738 563 706 542 b 579 579 654 542 621 563 b 614 349 601 524 614 449 b 575 110 614 243 599 165 b 672 168 615 124 647 143 b 781 104 699 140 735 119 z m 1117 103 b 1260 228 1188 124 1243 163 l 1136 228 b 1117 103 1135 178 1128 136 z m 407 -17 b 575 110 472 -17 536 18 b 406 85 529 93 472 85 b 236 108 339 85 283 93 b 407 -17 275 19 340 -17 z m 949 -17 b 1117 103 1032 -17 1089 21 b 950 82 1067 88 1008 82 b 781 104 883 82 826 90 b 949 -17 810 31 863 -17 z "},"p":{"ha":829,"x_min":0,"x_max":0,"o":"m 111 -278 l 231 -278 l 231 171 l 232 171 b 440 -17 261 74 324 -17 b 606 107 525 -17 576 29 b 474 83 564 90 518 83 b 231 186 343 83 258 138 l 231 508 b 474 611 258 557 343 611 b 606 588 518 611 564 604 b 440 711 576 665 525 711 b 232 524 324 711 261 621 l 231 524 l 231 694 l 111 694 z m 606 107 b 774 351 699 142 774 218 b 606 588 774 479 699 554 b 639 350 629 526 639 444 b 606 107 639 253 629 169 z "},"þ":{"ha":829,"x_min":0,"x_max":0,"o":"m 111 -278 l 231 -278 l 231 171 l 232 171 b 440 -17 261 74 324 -17 b 606 107 525 -17 576 29 b 474 83 564 90 518 83 b 231 186 343 83 258 138 l 231 508 b 474 611 258 557 343 611 b 606 588 518 611 564 604 b 440 711 576 665 525 711 b 232 524 324 711 261 621 l 231 524 l 231 972 l 111 972 z m 606 107 b 774 351 699 142 774 218 b 606 588 774 479 699 554 b 639 350 629 526 639 444 b 606 107 639 253 629 169 z "},"q":{"ha":832,"x_min":0,"x_max":0,"o":"m 599 -278 l 721 -278 l 721 694 l 599 694 l 599 524 l 597 524 b 389 711 568 621 506 711 b 224 588 304 711 253 665 b 356 611 265 604 311 611 b 599 508 486 611 571 557 l 599 186 b 356 83 571 138 486 83 b 224 107 311 83 265 90 b 389 -17 253 29 304 -17 b 597 171 506 -17 568 74 l 599 171 z m 224 107 b 190 350 200 169 190 253 b 224 588 190 444 200 526 b 56 351 131 554 56 479 b 224 107 56 218 131 142 z "},"r":{"ha":475,"x_min":0,"x_max":0,"o":"m 111 0 l 229 0 l 229 507 b 447 588 256 556 336 592 l 447 710 b 426 711 438 711 433 711 b 231 519 324 711 260 618 l 229 519 l 229 694 l 111 694 z "},"s":{"ha":669,"x_min":0,"x_max":0,"o":"m 188 597 b 333 618 225 611 274 618 b 476 601 392 618 439 613 b 332 711 457 671 413 711 b 188 597 243 711 197 656 z m 488 474 l 614 474 b 476 601 606 529 567 578 b 488 474 486 567 490 522 z m 511 100 b 606 219 571 122 606 161 b 439 383 606 293 553 340 l 321 428 b 185 571 215 468 185 496 b 188 597 185 579 186 589 b 89 481 122 575 89 535 b 247 333 89 414 133 376 l 372 286 b 514 126 479 246 514 200 b 511 100 514 118 513 108 z m 194 93 b 182 189 186 121 182 153 b 183 229 182 203 182 215 l 56 229 b 194 93 57 164 110 117 z m 349 -17 b 511 100 447 -17 500 40 b 339 75 467 83 407 75 b 194 93 285 75 236 82 b 349 -17 217 22 268 -17 z "},"š":{"ha":669,"x_min":0,"x_max":0,"o":"m 275 782 l 399 782 l 524 972 l 517 972 l 336 856 l 157 972 l 150 972 z m 188 597 b 333 618 225 611 274 618 b 476 601 392 618 439 613 b 332 711 457 671 413 711 b 188 597 243 711 197 656 z m 488 474 l 614 474 b 476 601 606 529 567 578 b 488 474 486 567 490 522 z m 511 100 b 606 219 571 122 606 161 b 439 383 606 293 553 340 l 321 428 b 185 571 215 468 185 496 b 188 597 185 579 186 589 b 89 481 122 575 89 535 b 247 333 89 414 133 376 l 372 286 b 514 126 479 246 514 200 b 511 100 514 118 513 108 z m 194 93 b 182 189 186 121 182 153 b 183 229 182 203 182 215 l 56 229 b 194 93 57 164 110 117 z m 349 -17 b 511 100 447 -17 500 40 b 339 75 467 83 407 75 b 194 93 285 75 236 82 b 349 -17 217 22 268 -17 z "},"ß":{"ha":808,"x_min":0,"x_max":0,"o":"m 239 872 b 404 900 283 890 339 900 b 561 875 468 900 519 892 b 404 989 539 949 483 989 b 239 872 325 989 264 949 z m 601 121 b 746 315 682 147 746 204 b 486 551 746 424 660 528 l 486 561 b 674 733 606 586 674 653 b 561 875 674 797 635 847 b 572 797 568 853 572 826 b 382 606 572 682 500 610 l 347 604 l 347 501 l 382 500 b 633 254 535 494 633 418 b 601 121 633 203 622 157 z m 111 0 l 228 0 l 228 792 b 239 872 228 822 232 849 b 111 668 156 838 111 769 z m 332 -1 l 365 -1 b 601 121 468 -1 556 42 b 454 100 556 106 504 100 l 332 100 z "},"t":{"ha":467,"x_min":0,"x_max":0,"o":"m 257 90 b 256 122 256 100 256 111 l 256 611 l 415 611 l 415 694 l 256 694 l 256 888 l 133 888 l 133 694 l 28 694 l 28 611 l 133 611 l 133 258 b 257 90 133 164 160 110 z m 375 -17 b 425 -12 393 -17 408 -15 l 425 83 b 365 82 397 82 392 82 b 257 90 322 82 286 85 b 375 -17 263 21 292 -17 z "},"u":{"ha":771,"x_min":0,"x_max":0,"o":"m 210 110 b 206 169 207 128 206 147 l 206 694 l 83 694 l 83 282 b 210 110 83 188 139 135 z m 343 -17 b 546 175 451 -17 515 76 l 547 175 l 547 0 l 667 0 l 667 694 l 547 694 l 547 189 b 328 90 521 140 440 90 b 210 110 289 90 247 96 b 343 -17 224 22 268 -17 z "},"ú":{"ha":771,"x_min":0,"x_max":0,"o":"m 304 774 l 311 774 l 592 964 l 592 972 l 421 972 z m 210 110 b 206 169 207 128 206 147 l 206 694 l 83 694 l 83 282 b 210 110 83 188 139 135 z m 343 -17 b 546 175 451 -17 515 76 l 547 175 l 547 0 l 667 0 l 667 694 l 547 694 l 547 189 b 328 90 521 140 440 90 b 210 110 289 90 247 96 b 343 -17 224 22 268 -17 z "},"û":{"ha":771,"x_min":0,"x_max":0,"o":"m 447 972 l 324 972 l 199 782 l 206 782 l 386 899 l 565 782 l 572 782 z m 210 110 b 206 169 207 128 206 147 l 206 694 l 83 694 l 83 282 b 210 110 83 188 139 135 z m 343 -17 b 546 175 451 -17 515 76 l 547 175 l 547 0 l 667 0 l 667 694 l 547 694 l 547 189 b 328 90 521 140 440 90 b 210 110 289 90 247 96 b 343 -17 224 22 268 -17 z "},"ü":{"ha":771,"x_min":0,"x_max":0,"o":"m 211 813 l 336 813 l 336 942 l 211 942 z m 433 813 l 561 813 l 561 942 l 433 942 z m 210 110 b 206 169 207 128 206 147 l 206 694 l 83 694 l 83 282 b 210 110 83 188 139 135 z m 343 -17 b 546 175 451 -17 515 76 l 547 175 l 547 0 l 667 0 l 667 694 l 547 694 l 547 189 b 328 90 521 140 440 90 b 210 110 289 90 247 96 b 343 -17 224 22 268 -17 z "},"ù":{"ha":771,"x_min":0,"x_max":0,"o":"m 453 774 l 336 972 l 165 972 l 165 964 l 446 774 z m 210 110 b 206 169 207 128 206 147 l 206 694 l 83 694 l 83 282 b 210 110 83 188 139 135 z m 343 -17 b 546 175 451 -17 515 76 l 547 175 l 547 0 l 667 0 l 667 694 l 547 694 l 547 189 b 328 90 521 140 440 90 b 210 110 289 90 247 96 b 343 -17 224 22 268 -17 z "},"ű":{"ha":771,"x_min":0,"x_max":0,"o":"m 207 774 l 214 774 l 479 964 l 479 972 l 310 972 z m 418 774 l 425 774 l 690 964 l 690 972 l 521 972 z m 210 110 b 206 169 207 128 206 147 l 206 694 l 83 694 l 83 282 b 210 110 83 188 139 135 z m 343 -17 b 546 175 451 -17 515 76 l 547 175 l 547 0 l 667 0 l 667 694 l 547 694 l 547 189 b 328 90 521 140 440 90 b 210 110 289 90 247 96 b 343 -17 224 22 268 -17 z "},"v":{"ha":725,"x_min":0,"x_max":0,"o":"m 286 104 l 158 694 l 28 694 l 135 272 b 286 104 158 182 211 126 z m 440 104 b 593 272 515 126 571 183 l 697 694 l 568 694 z m 364 -17 b 428 50 401 -17 421 13 l 440 104 b 364 94 417 97 390 94 b 286 104 336 94 311 97 l 299 50 b 364 -17 307 10 325 -17 z "},"w":{"ha":1125,"x_min":0,"x_max":0,"o":"m 496 596 b 556 601 515 600 535 601 b 617 596 576 601 597 600 l 610 660 b 557 711 607 692 588 711 b 503 660 526 711 506 692 z m 231 104 l 183 694 l 56 694 l 99 263 b 231 104 108 168 169 121 z m 894 103 b 1028 272 960 117 1017 161 l 1069 694 l 942 694 z m 338 103 b 464 263 399 118 454 161 l 496 596 b 367 444 426 581 375 535 z m 786 103 l 753 444 b 617 596 744 535 688 581 l 650 267 b 786 103 660 168 715 118 z m 285 -17 b 332 33 310 -17 329 3 l 338 103 b 285 97 321 99 303 97 b 231 104 268 97 249 100 l 236 33 b 285 -17 239 3 257 -17 z m 840 -17 b 890 49 871 -17 888 7 l 894 103 b 840 97 876 99 858 97 b 786 103 822 97 803 99 l 792 47 b 840 -17 796 7 811 -17 z "},"x":{"ha":751,"x_min":0,"x_max":0,"o":"m 317 419 b 267 535 308 451 290 486 l 188 694 l 51 694 l 140 540 b 317 419 183 465 243 431 z m 432 419 b 610 540 501 429 563 461 l 703 694 l 565 694 l 479 533 b 432 419 454 486 439 451 z m 433 307 b 426 365 429 326 426 346 b 432 419 426 383 428 401 b 375 415 414 417 394 415 b 317 419 356 415 336 417 b 325 364 322 401 325 383 b 318 308 325 344 322 326 b 375 313 336 311 356 313 b 433 307 394 313 414 311 z m 35 0 l 176 0 l 265 185 b 318 308 289 233 308 271 b 140 189 242 296 178 257 z m 576 0 l 717 0 l 610 189 b 433 307 571 256 506 294 b 486 178 442 269 460 229 z "},"y":{"ha":775,"x_min":0,"x_max":0,"o":"m 211 126 b 207 186 208 144 207 164 l 207 694 l 85 694 l 85 299 b 211 126 85 204 140 151 z m 535 -165 b 671 69 613 -129 671 -58 l 671 694 l 549 694 l 549 206 b 329 107 522 157 442 107 b 211 126 290 107 249 113 b 344 0 225 39 269 0 b 546 189 451 0 515 92 l 549 189 l 549 -39 b 535 -165 549 -89 543 -131 z m 219 -171 b 204 -31 208 -133 203 -87 l 69 -31 b 219 -171 75 -92 133 -143 z m 376 -294 b 535 -165 454 -294 510 -254 b 379 -194 486 -186 432 -194 b 219 -171 319 -194 265 -186 b 376 -294 244 -257 299 -294 z "},"ý":{"ha":775,"x_min":0,"x_max":0,"o":"m 307 774 l 314 774 l 594 964 l 594 972 l 424 972 z m 211 126 b 207 186 208 144 207 164 l 207 694 l 85 694 l 85 299 b 211 126 85 204 140 151 z m 535 -165 b 671 69 613 -129 671 -58 l 671 694 l 549 694 l 549 206 b 329 107 522 157 442 107 b 211 126 290 107 249 113 b 344 0 225 39 269 0 b 546 189 451 0 515 92 l 549 189 l 549 -39 b 535 -165 549 -89 543 -131 z m 219 -171 b 204 -31 208 -133 203 -87 l 69 -31 b 219 -171 75 -92 133 -143 z m 376 -294 b 535 -165 454 -294 510 -254 b 379 -194 486 -186 432 -194 b 219 -171 319 -194 265 -186 b 376 -294 244 -257 299 -294 z "},"ÿ":{"ha":775,"x_min":0,"x_max":0,"o":"m 214 813 l 339 813 l 339 942 l 214 942 z m 436 813 l 564 813 l 564 942 l 436 942 z m 211 126 b 207 186 208 144 207 164 l 207 694 l 85 694 l 85 299 b 211 126 85 204 140 151 z m 535 -165 b 671 69 613 -129 671 -58 l 671 694 l 549 694 l 549 206 b 329 107 522 157 442 107 b 211 126 290 107 249 113 b 344 0 225 39 269 0 b 546 189 451 0 515 92 l 549 189 l 549 -39 b 535 -165 549 -89 543 -131 z m 219 -171 b 204 -31 208 -133 203 -87 l 69 -31 b 219 -171 75 -92 133 -143 z m 376 -294 b 535 -165 454 -294 510 -254 b 379 -194 486 -186 432 -194 b 219 -171 319 -194 265 -186 b 376 -294 244 -257 299 -294 z "},"z":{"ha":647,"x_min":0,"x_max":0,"o":"m 324 344 b 592 613 424 401 528 463 l 592 694 l 75 694 l 75 599 l 463 599 b 324 344 443 463 382 407 z m 69 0 l 592 0 l 592 99 l 201 99 b 324 344 219 228 271 289 b 69 78 215 285 111 231 z "},"ž":{"ha":647,"x_min":0,"x_max":0,"o":"m 274 782 l 397 782 l 522 972 l 515 972 l 335 856 l 156 972 l 149 972 z m 324 344 b 592 613 424 401 528 463 l 592 694 l 75 694 l 75 599 l 463 599 b 324 344 443 463 382 407 z m 69 0 l 592 0 l 592 99 l 201 99 b 324 344 219 228 271 289 b 69 78 215 285 111 231 z "},"ﬁ":{"ha":818,"x_min":0,"x_max":0,"o":"m 447 874 l 447 989 b 267 861 335 989 285 944 b 388 876 301 872 342 876 b 447 874 408 876 413 876 z m 581 972 l 581 832 l 714 832 l 714 972 z m 707 694 l 258 694 l 258 760 b 267 861 258 799 261 832 b 140 694 189 839 142 786 l 42 694 l 42 611 l 140 611 l 140 0 l 258 0 l 258 611 l 588 611 l 588 0 l 707 0 z "},"ﬂ":{"ha":817,"x_min":0,"x_max":0,"o":"m 449 874 l 449 989 b 267 861 336 989 286 944 b 388 876 301 872 342 876 b 449 874 408 876 414 876 z m 588 972 l 588 694 l 258 694 l 258 760 b 267 861 258 799 261 832 b 140 694 189 839 142 786 l 42 694 l 42 611 l 140 611 l 140 0 l 258 0 l 258 611 l 588 611 l 588 0 l 706 0 l 706 972 z "},"ª":{"ha":467,"x_min":0,"x_max":0,"o":"m 336 899 b 247 989 335 946 304 989 b 153 901 194 989 164 958 b 243 911 181 908 211 911 b 336 899 275 911 307 907 z m 49 815 l 149 815 b 153 901 147 849 149 878 b 49 815 93 886 50 857 z m 218 522 b 335 644 274 522 318 567 l 336 533 l 425 533 l 425 788 b 336 899 425 849 386 882 l 336 894 b 260 781 335 836 300 807 l 335 792 l 335 669 b 169 594 301 610 235 594 b 131 597 157 594 143 594 b 218 522 139 546 172 522 z m 131 597 b 129 622 129 604 129 613 b 260 781 129 714 200 743 l 150 765 b 42 672 76 756 42 722 b 131 597 42 624 82 603 z "},"º":{"ha":554,"x_min":0,"x_max":0,"o":"m 157 889 b 276 903 190 899 231 903 b 396 889 322 903 363 899 b 278 989 376 963 336 989 b 157 889 219 989 178 964 z m 160 618 b 143 756 149 651 143 697 b 157 889 143 811 147 856 b 42 756 83 868 42 825 b 160 618 42 683 85 638 z m 394 618 b 513 756 469 638 513 683 b 396 889 513 825 469 868 b 410 756 406 856 410 811 b 394 618 410 697 404 651 z m 278 522 b 394 618 332 522 372 547 b 276 604 361 608 321 604 b 160 618 232 604 193 608 b 278 522 182 549 224 522 z "},"μ":{"ha":833,"x_min":0,"x_max":0,"o":""},"¹":{"ha":449,"x_min":0,"x_max":0,"o":"m 50 528 l 421 528 l 421 600 l 276 600 l 276 972 l 186 972 b 167 882 185 942 178 910 l 196 882 l 196 600 l 50 600 z m 42 797 b 167 882 108 797 147 833 l 42 882 z "},"²":{"ha":451,"x_min":0,"x_max":0,"o":"m 139 913 b 231 921 165 918 196 921 b 317 914 263 921 292 918 b 231 989 310 956 282 989 b 139 913 181 989 150 963 z m 228 739 b 404 839 315 760 404 761 b 317 914 404 878 371 903 b 318 892 318 907 318 899 b 228 739 318 814 271 778 z m 42 814 l 139 814 b 135 868 136 833 135 851 b 139 913 135 885 136 900 b 42 814 75 899 39 867 z m 53 528 l 410 528 l 410 607 l 157 607 b 228 739 158 671 192 706 b 53 528 139 718 50 679 z "},"³":{"ha":506,"x_min":0,"x_max":0,"o":"m 351 910 b 256 989 346 956 315 989 b 153 913 206 989 168 969 b 250 919 181 918 214 919 b 351 910 283 919 319 917 z m 51 819 l 146 819 b 153 913 144 858 146 889 b 51 819 89 901 50 874 z m 375 610 b 450 681 418 621 450 642 b 304 758 450 735 365 753 l 304 775 b 440 842 363 781 440 796 b 351 910 440 878 401 899 b 353 892 353 904 353 897 b 215 799 353 839 332 799 l 199 799 l 199 729 l 215 729 b 376 628 332 729 376 694 b 375 610 376 621 376 615 z m 151 604 b 146 650 149 618 146 632 b 150 693 146 663 147 678 l 49 693 b 151 604 46 638 90 614 z m 260 525 b 375 610 318 525 367 553 b 265 599 342 601 303 599 b 151 604 225 599 186 600 b 260 525 165 544 211 525 z "},"⁄":{"ha":668,"x_min":0,"x_max":0,"o":"m 42 0 l 114 0 l 626 972 l 553 972 z "},"½":{"ha":1121,"x_min":0,"x_max":0,"o":"m 50 528 l 421 528 l 421 600 l 276 600 l 276 972 l 186 972 b 167 882 185 942 178 910 l 196 882 l 196 600 l 50 600 z m 276 0 l 349 0 l 861 972 l 788 972 z m 42 797 b 167 882 108 797 147 833 l 42 882 z m 808 385 b 900 393 835 390 865 393 b 986 386 932 393 961 390 b 900 461 979 428 951 461 b 808 385 850 461 819 435 z m 897 211 b 1074 311 985 232 1074 233 b 986 386 1074 350 1040 375 b 988 364 988 379 988 371 b 897 211 988 286 940 250 z m 711 286 l 808 286 b 804 340 806 306 804 324 b 808 385 804 357 806 372 b 711 286 744 371 708 339 z m 722 0 l 1079 0 l 1079 79 l 826 79 b 897 211 828 143 861 178 b 722 0 808 190 719 151 z "},"¼":{"ha":1107,"x_min":0,"x_max":0,"o":"m 50 528 l 421 528 l 421 600 l 276 600 l 276 972 l 186 972 b 167 882 185 942 178 910 l 196 882 l 196 600 l 50 600 z m 276 0 l 349 0 l 861 972 l 788 972 z m 42 797 b 167 882 108 797 147 833 l 42 882 z m 778 296 b 906 458 843 346 907 396 l 801 458 b 778 296 806 388 793 338 z m 874 0 l 956 0 l 956 104 l 1044 104 l 1044 174 l 956 174 l 956 283 l 874 283 l 874 174 l 743 174 b 778 296 744 217 763 253 b 639 149 715 249 650 203 l 639 104 l 874 104 z "},"¾":{"ha":1106,"x_min":0,"x_max":0,"o":"m 339 910 b 243 989 333 956 303 989 b 140 913 193 989 156 969 b 238 919 168 918 201 919 b 339 910 271 919 307 917 z m 276 0 l 349 0 l 861 972 l 788 972 z m 39 819 l 133 819 b 140 913 132 858 133 889 b 39 819 76 901 38 874 z m 363 610 b 438 681 406 621 438 642 b 292 758 438 735 353 753 l 292 775 b 428 842 350 781 428 796 b 339 910 428 878 389 899 b 340 892 340 904 340 897 b 203 799 340 839 319 799 l 186 799 l 186 729 l 203 729 b 364 628 319 729 364 694 b 363 610 364 621 364 615 z m 139 604 b 133 650 136 618 133 632 b 138 693 133 663 135 678 l 36 693 b 139 604 33 638 78 614 z m 247 525 b 363 610 306 525 354 553 b 253 599 329 601 290 599 b 139 604 213 599 174 600 b 247 525 153 544 199 525 z m 778 296 b 906 458 843 346 907 396 l 801 458 b 778 296 806 388 793 338 z m 874 0 l 956 0 l 956 104 l 1044 104 l 1044 174 l 956 174 l 956 283 l 874 283 l 874 174 l 743 174 b 778 296 744 217 763 253 b 639 149 715 249 650 203 l 639 104 l 874 104 z "},".":{"ha":289,"x_min":0,"x_max":0,"o":"m 69 0 l 219 0 l 219 150 l 69 150 z "},",":{"ha":368,"x_min":0,"x_max":0,"o":"m 182 -96 b 326 31 261 -83 326 -47 l 326 106 l 183 106 l 183 -46 b 182 -96 183 -64 183 -81 z m 42 -212 b 69 -214 51 -214 61 -214 b 182 -96 147 -214 175 -175 b 103 -101 156 -100 129 -101 b 42 -99 82 -101 61 -100 z "},":":{"ha":289,"x_min":0,"x_max":0,"o":"m 69 544 l 219 544 l 219 694 l 69 694 z m 69 0 l 219 0 l 219 150 l 69 150 z "},";":{"ha":368,"x_min":0,"x_max":0,"o":"m 175 544 l 325 544 l 325 694 l 175 694 z m 182 -94 b 326 32 261 -82 326 -46 l 326 107 l 183 107 l 183 -44 b 182 -94 183 -62 183 -79 z m 42 -211 b 69 -212 51 -212 61 -212 b 182 -94 147 -212 175 -174 b 103 -100 156 -99 129 -100 b 42 -97 82 -100 61 -99 z "},"…":{"ha":1242,"x_min":0,"x_max":0,"o":"m 111 0 l 261 0 l 261 150 l 111 150 z m 539 0 l 689 0 l 689 150 l 539 150 z m 981 0 l 1131 0 l 1131 150 l 981 150 z "},"!":{"ha":317,"x_min":0,"x_max":0,"o":"m 108 257 l 210 257 l 224 972 l 94 972 z m 83 0 l 233 0 l 233 150 l 83 150 z "},"¡":{"ha":317,"x_min":0,"x_max":0,"o":"m 83 544 l 233 544 l 233 694 l 83 694 z m 93 -278 l 222 -278 l 208 438 l 107 438 z "},"?":{"ha":706,"x_min":0,"x_max":0,"o":"m 528 860 b 368 989 510 938 454 989 b 206 864 300 989 235 956 b 364 886 250 879 303 886 b 528 860 433 886 488 876 z m 69 694 l 190 694 b 189 742 189 711 189 726 b 206 864 189 790 194 831 b 69 694 119 835 69 778 z m 274 257 l 386 257 l 388 314 b 636 708 393 515 636 550 b 528 860 636 774 604 829 b 535 800 532 842 535 821 b 274 292 535 557 274 592 z m 256 0 l 406 0 l 406 150 l 256 150 z "},"¿":{"ha":706,"x_min":0,"x_max":0,"o":"m 297 543 l 447 543 l 447 693 l 297 693 z m 178 -165 b 171 -106 174 -147 171 -126 b 432 403 171 138 432 103 l 432 438 l 319 438 l 318 381 b 69 -14 313 179 69 144 b 178 -165 69 -79 101 -135 z m 500 -169 b 636 0 586 -140 636 -83 l 515 0 b 517 -47 517 -17 517 -32 b 500 -169 517 -96 511 -136 z m 338 -294 b 500 -169 406 -294 471 -261 b 342 -192 456 -185 403 -192 b 178 -165 272 -192 218 -182 b 338 -294 196 -243 251 -294 z "},"·":{"ha":289,"x_min":0,"x_max":0,"o":"m 69 386 l 219 386 l 219 536 l 69 536 z "},"•":{"ha":381,"x_min":0,"x_max":0,"o":"m 81 360 l 300 360 l 300 579 l 81 579 z "},"*":{"ha":503,"x_min":0,"x_max":0,"o":"m 254 813 b 299 913 254 813 299 847 l 299 974 l 210 974 l 210 913 b 254 813 210 847 254 813 z m 161 778 b 204 785 186 778 204 785 b 140 872 204 785 197 840 l 86 903 l 42 826 l 97 796 b 161 778 119 782 143 778 z m 344 781 b 411 796 367 781 390 783 l 461 825 l 419 901 l 369 872 b 304 785 318 839 304 785 b 344 781 304 785 322 781 z m 254 697 b 304 726 274 718 304 726 b 301 756 303 738 301 747 b 304 785 301 774 304 785 b 254 813 276 790 254 813 b 204 785 226 789 204 785 b 207 756 206 775 207 764 b 204 725 207 738 204 725 b 254 697 238 715 254 697 z m 419 611 l 461 688 l 411 715 b 346 733 386 729 364 733 b 304 726 321 733 304 726 b 369 639 304 726 311 671 z m 85 608 l 140 638 b 204 725 196 669 204 725 b 164 731 204 725 188 731 b 97 714 144 731 122 728 l 42 682 z m 210 538 l 299 538 l 299 599 b 254 697 299 661 254 697 b 210 599 254 697 210 661 z "},"#":{"ha":1047,"x_min":0,"x_max":0,"o":"m 169 0 l 264 0 l 338 275 l 590 275 l 518 3 l 613 3 l 685 275 l 928 275 l 928 357 l 707 357 l 779 628 l 1006 628 l 1006 710 l 800 710 l 871 975 l 776 975 l 706 710 l 453 710 l 522 972 l 428 972 l 358 710 l 133 710 l 133 628 l 336 628 l 264 357 l 42 357 l 42 275 l 243 275 z m 358 357 l 431 628 l 685 628 l 613 357 z "},"/":{"ha":704,"x_min":0,"x_max":0,"o":"m -28 -214 l 76 -214 l 732 972 l 628 972 z "},"\\":{"ha":619,"x_min":0,"x_max":0,"o":"m 514 -214 l 619 -214 l 103 972 l 0 972 z "},"(":{"ha":424,"x_min":0,"x_max":0,"o":"m 188 860 b 354 876 235 874 293 876 l 354 989 b 188 860 242 989 192 940 z m 190 -86 b 188 -46 189 -74 188 -60 l 188 860 b 69 664 117 836 69 783 l 69 56 b 190 -86 76 -31 122 -68 z m 354 -211 l 354 -99 b 190 -86 294 -99 238 -97 b 354 -211 203 -165 257 -211 z "},")":{"ha":424,"x_min":0,"x_max":0,"o":"m 236 860 b 69 989 232 940 182 989 l 69 876 b 236 860 131 876 189 874 z m 233 -86 b 354 56 301 -68 347 -31 l 354 664 b 236 860 354 783 307 836 l 236 -46 b 233 -86 236 -60 235 -74 z m 69 -211 b 233 -86 167 -211 221 -165 b 69 -99 186 -97 129 -99 z "},"{":{"ha":571,"x_min":0,"x_max":0,"o":"m 335 869 b 501 885 381 883 439 885 l 501 989 b 335 869 388 989 338 946 z m 335 -86 l 335 183 b 171 408 335 310 256 381 l 171 413 b 335 625 256 435 335 499 l 335 869 b 225 697 268 849 225 803 l 225 626 b 69 461 225 500 169 464 l 69 357 b 225 196 169 354 225 319 l 225 88 b 335 -86 225 -18 268 -65 z m 501 -204 l 501 -103 b 335 -86 439 -103 381 -101 b 501 -204 338 -161 389 -204 z "},"}":{"ha":571,"x_min":0,"x_max":0,"o":"m 236 869 b 69 989 233 946 183 989 l 69 885 b 236 869 132 885 190 883 z m 236 -86 b 346 88 303 -65 346 -18 l 346 196 b 501 357 346 319 401 354 l 501 461 b 346 626 401 464 346 500 l 346 697 b 236 869 346 803 303 849 l 236 625 b 400 413 236 499 315 435 l 400 408 b 236 183 315 381 236 310 z m 69 -204 b 236 -86 182 -204 233 -161 b 69 -103 190 -101 132 -103 z "},"[":{"ha":476,"x_min":0,"x_max":0,"o":"m 69 -192 l 407 -192 l 407 -108 l 174 -108 l 174 889 l 407 889 l 407 972 l 69 972 z "},"]":{"ha":476,"x_min":0,"x_max":0,"o":"m 69 -192 l 407 -192 l 407 972 l 69 972 l 69 889 l 303 889 l 303 -108 l 69 -108 z "},"-":{"ha":569,"x_min":0,"x_max":0,"o":"m 69 331 l 500 331 l 500 428 l 69 428 z "},"­":{"ha":569,"x_min":0,"x_max":0,"o":"m 69 331 l 500 331 l 500 428 l 69 428 z "},"–":{"ha":778,"x_min":0,"x_max":0,"o":"m 69 340 l 708 340 l 708 424 l 69 424 z "},"—":{"ha":1069,"x_min":0,"x_max":0,"o":"m 69 342 l 1000 342 l 1000 425 l 69 425 z "},"_":{"ha":750,"x_min":0,"x_max":0,"o":"m 69 -69 l 681 -69 l 681 0 l 69 0 z "},"‚":{"ha":368,"x_min":0,"x_max":0,"o":"m 182 -96 b 326 31 261 -83 326 -47 l 326 106 l 183 106 l 183 -46 b 182 -96 183 -64 183 -81 z m 42 -212 b 69 -214 51 -214 61 -214 b 182 -96 147 -214 175 -175 b 103 -101 156 -100 129 -101 b 42 -99 82 -101 61 -100 z "},"„":{"ha":615,"x_min":0,"x_max":0,"o":"m 182 -96 b 326 31 261 -83 326 -47 l 326 106 l 183 106 l 183 -46 b 182 -96 183 -64 183 -81 z m 429 -96 b 574 31 508 -83 574 -47 l 574 106 l 431 106 l 431 -46 b 429 -96 431 -64 431 -81 z m 42 -212 b 69 -214 51 -214 61 -214 b 182 -96 147 -214 175 -175 b 103 -101 156 -100 129 -101 b 42 -99 82 -101 61 -100 z m 289 -212 b 317 -214 299 -214 308 -214 b 429 -96 394 -214 422 -175 b 350 -101 403 -100 376 -101 b 289 -99 329 -101 308 -100 z "},"“":{"ha":585,"x_min":0,"x_max":0,"o":"m 326 978 b 299 979 317 979 307 979 b 186 861 221 979 193 940 b 265 867 213 865 239 867 b 326 864 286 867 307 865 z m 569 978 b 542 979 560 979 550 979 b 429 861 464 979 436 940 b 508 867 456 865 482 867 b 569 864 529 867 550 865 z m 186 861 b 42 735 107 849 42 813 l 42 660 l 185 660 l 185 811 b 186 861 185 829 185 846 z m 429 861 b 285 735 350 849 285 813 l 285 660 l 428 660 l 428 811 b 429 861 428 829 428 846 z "},"”":{"ha":601,"x_min":0,"x_max":0,"o":"m 182 771 b 326 897 261 783 326 819 l 326 972 l 183 972 l 183 821 b 182 771 183 803 183 786 z m 415 771 b 560 897 494 783 560 819 l 560 972 l 417 972 l 417 821 b 415 771 417 803 417 786 z m 42 654 b 69 653 51 653 61 653 b 182 771 147 653 175 692 b 103 765 156 767 129 765 b 42 768 82 765 61 767 z m 275 654 b 303 653 285 653 294 653 b 415 771 381 653 408 692 b 336 765 389 767 363 765 b 275 768 315 765 294 767 z "},"‘":{"ha":368,"x_min":0,"x_max":0,"o":"m 326 979 b 299 981 317 981 307 981 b 186 863 221 981 193 942 b 265 868 213 867 239 868 b 326 865 286 868 307 867 z m 186 863 b 42 736 107 850 42 814 l 42 661 l 185 661 l 185 813 b 186 863 185 831 185 847 z "},"’":{"ha":368,"x_min":0,"x_max":0,"o":"m 182 771 b 326 897 261 783 326 819 l 326 972 l 183 972 l 183 821 b 182 771 183 803 183 786 z m 42 654 b 69 653 51 653 61 653 b 182 771 147 653 175 692 b 103 765 156 767 129 765 b 42 768 82 765 61 767 z "},"«":{"ha":815,"x_min":0,"x_max":0,"o":"m 206 454 l 424 508 l 424 610 l 346 592 b 206 454 274 575 226 526 z m 528 454 l 746 508 l 746 610 l 668 592 b 528 454 596 575 549 526 z m 204 279 b 194 365 197 306 194 335 b 206 454 194 397 199 428 l 143 439 b 69 365 99 428 69 403 b 143 293 69 328 99 303 z m 526 279 b 517 365 519 306 517 335 b 528 454 517 397 521 428 l 465 439 b 392 365 421 428 392 403 b 465 293 392 328 421 303 z m 424 121 l 424 229 l 204 279 b 346 138 224 206 271 154 z m 746 121 l 746 229 l 526 279 b 668 138 546 206 593 154 z "},"»":{"ha":815,"x_min":0,"x_max":0,"o":"m 288 454 b 147 592 267 526 219 575 l 69 610 l 69 508 z m 610 454 b 469 592 589 526 542 575 l 392 610 l 392 508 z m 289 279 l 350 293 b 424 365 394 303 424 328 b 350 439 424 403 394 428 l 288 454 b 299 365 294 428 299 397 b 289 279 299 335 296 306 z m 611 279 l 672 293 b 746 365 717 303 746 328 b 672 439 746 403 717 428 l 610 454 b 621 365 617 428 621 397 b 611 279 621 335 618 306 z m 69 121 l 147 138 b 289 279 222 154 269 206 l 69 229 z m 392 121 l 469 138 b 611 279 544 154 592 206 l 392 229 z "},"‹":{"ha":493,"x_min":0,"x_max":0,"o":"m 206 454 l 424 508 l 424 610 l 346 592 b 206 454 274 575 226 526 z m 204 279 b 194 365 197 306 194 335 b 206 454 194 397 199 428 l 143 439 b 69 365 99 428 69 403 b 143 293 69 328 99 303 z m 424 121 l 424 229 l 204 279 b 346 138 224 206 271 154 z "},"›":{"ha":493,"x_min":0,"x_max":0,"o":"m 288 454 b 147 592 267 526 219 575 l 69 610 l 69 508 z m 289 279 l 350 293 b 424 365 394 303 424 328 b 350 439 424 403 394 428 l 288 454 b 299 365 294 428 299 397 b 289 279 299 335 296 306 z m 69 121 l 147 138 b 289 279 222 154 269 206 l 69 229 z "},"\"":{"ha":600,"x_min":0,"x_max":0,"o":"m 182 751 b 326 878 261 764 326 800 l 326 953 l 183 953 l 183 801 b 182 751 183 783 183 767 z m 414 751 b 558 878 493 764 558 800 l 558 953 l 415 953 l 415 801 b 414 751 415 783 415 767 z m 42 635 b 69 633 51 633 61 633 b 182 751 147 633 175 672 b 103 746 156 747 129 746 b 42 749 82 746 61 747 z m 274 635 b 301 633 283 633 293 633 b 414 751 379 633 407 672 b 335 746 388 747 361 746 b 274 749 314 746 293 747 z "},"'":{"ha":368,"x_min":0,"x_max":0,"o":"m 182 751 b 326 878 261 764 326 800 l 326 953 l 183 953 l 183 801 b 182 751 183 783 183 767 z m 42 635 b 69 633 51 633 61 633 b 182 751 147 633 175 672 b 103 746 156 747 129 746 b 42 749 82 746 61 747 z "}," ":{"ha":833,"x_min":0,"x_max":0,"o":""},"¢":{"ha":744,"x_min":0,"x_max":0,"o":"m 554 578 b 435 707 529 657 486 694 l 435 882 l 351 882 l 351 707 b 224 579 296 696 251 658 b 397 604 276 597 336 604 b 554 578 449 604 504 596 z m 224 579 b 56 349 126 544 56 475 b 226 113 56 219 126 147 b 194 349 206 168 194 246 b 224 579 194 449 206 524 z m 717 425 b 554 578 700 500 633 550 b 581 425 568 538 576 488 z m 581 250 b 557 106 579 190 571 143 b 719 250 640 129 696 176 z m 226 113 b 351 -12 251 39 294 0 l 351 -197 l 435 -197 l 435 -12 b 557 106 486 -3 531 32 b 397 86 511 92 458 86 b 226 113 336 86 278 94 z "},"¤":{"ha":793,"x_min":0,"x_max":0,"o":"m 106 29 l 224 147 b 394 92 272 113 332 92 b 565 149 458 92 518 113 l 685 29 l 724 68 l 606 186 b 669 357 646 231 669 289 b 606 529 669 425 644 483 l 715 639 l 679 675 l 568 564 b 394 622 519 601 458 622 b 225 567 332 622 272 601 l 114 678 l 75 639 l 185 529 b 119 357 144 485 119 425 b 186 182 119 288 144 228 l 69 65 z m 394 140 b 175 357 267 140 175 229 b 394 574 175 485 267 574 b 614 357 522 574 614 485 b 394 140 614 229 522 140 z "},"$":{"ha":893,"x_min":0,"x_max":0,"o":"m 246 857 b 454 892 300 881 371 892 b 658 858 529 892 600 881 b 500 986 632 933 579 975 l 500 1144 l 417 1144 l 417 986 b 246 857 328 975 268 922 z m 675 679 l 810 679 b 658 858 807 765 747 825 b 678 732 671 824 678 782 b 675 679 678 715 676 697 z m 683 122 b 800 293 761 158 800 218 b 604 519 800 399 731 468 l 425 592 b 235 793 293 644 235 685 b 246 857 235 815 239 838 b 131 699 172 826 131 774 b 339 496 131 600 218 543 l 521 424 b 696 194 644 375 696 321 b 683 122 696 169 692 144 z m 242 113 b 215 261 224 153 215 203 b 218 322 215 281 215 301 l 83 322 b 242 113 85 213 146 147 z m 417 -210 l 500 -210 l 500 -14 b 683 122 597 -1 660 53 b 458 82 628 96 553 82 b 242 113 376 82 303 92 b 417 -14 274 40 333 -3 z "},"€":{"ha":1031,"x_min":0,"x_max":0,"o":"m 419 851 b 604 885 475 874 538 885 b 788 856 675 885 736 874 b 611 989 756 938 699 989 b 419 851 525 989 461 940 z m 822 651 l 961 651 b 788 856 961 735 900 814 b 822 651 810 799 821 729 z m 418 131 b 368 328 393 185 376 253 l 669 328 l 669 411 l 361 411 b 360 489 360 436 360 463 b 361 567 360 515 360 542 l 669 567 l 669 650 l 368 650 b 419 851 378 731 394 799 b 233 650 333 815 267 750 l 69 650 l 69 567 l 214 567 b 210 490 211 543 210 517 b 215 411 210 463 211 436 l 69 411 l 69 328 l 236 328 b 418 131 271 233 336 168 z m 804 122 b 976 318 894 158 958 224 l 839 318 b 804 122 839 250 828 181 z m 622 -17 b 804 122 711 -17 771 42 b 610 89 747 100 682 89 b 418 131 542 89 475 103 b 622 -17 458 39 524 -17 z "},"ƒ":{"ha":833,"x_min":0,"x_max":0,"o":""},"£":{"ha":917,"x_min":0,"x_max":0,"o":"m 410 881 b 549 901 451 896 499 901 b 685 881 597 901 644 896 b 551 989 660 954 613 989 b 410 881 488 989 440 958 z m 181 0 l 847 0 l 847 90 l 300 90 l 329 335 l 715 335 l 715 415 l 339 415 l 375 724 b 410 881 383 789 394 840 b 258 671 331 851 274 788 l 226 415 l 56 415 l 56 335 l 215 335 l 181 56 z m 703 682 l 821 682 b 685 881 813 792 760 851 b 704 736 697 843 704 794 b 703 682 704 719 704 701 z "},"¥":{"ha":919,"x_min":0,"x_max":0,"o":"m 118 421 l 829 421 l 829 504 l 407 504 b 361 657 404 574 396 600 l 169 972 l 42 972 l 272 610 b 406 504 315 542 349 504 l 118 504 z m 517 504 b 646 608 579 504 615 560 l 878 972 l 763 972 l 560 657 b 517 504 522 600 518 574 z m 407 0 l 517 0 l 517 251 l 829 251 l 829 335 l 118 335 l 118 251 l 407 251 z "},"+":{"ha":806,"x_min":0,"x_max":0,"o":"m 347 0 l 458 0 l 458 306 l 736 306 l 736 403 l 458 403 l 458 694 l 347 694 l 347 403 l 69 403 l 69 306 l 347 306 z "},"−":{"ha":806,"x_min":0,"x_max":0,"o":"m 69 306 l 736 306 l 736 403 l 69 403 z "},"×":{"ha":679,"x_min":0,"x_max":0,"o":"m 139 82 l 340 283 l 540 82 l 610 151 l 410 353 l 610 553 l 540 622 l 340 422 l 139 622 l 69 553 l 271 353 l 69 151 z "},"÷":{"ha":806,"x_min":0,"x_max":0,"o":"m 328 544 l 478 544 l 478 694 l 328 694 z m 69 306 l 736 306 l 736 403 l 69 403 z m 328 0 l 478 0 l 478 150 l 328 150 z "},"=":{"ha":806,"x_min":0,"x_max":0,"o":"m 69 418 l 736 418 l 736 515 l 69 515 z m 69 182 l 736 182 l 736 279 l 69 279 z "},"≠":{"ha":833,"x_min":0,"x_max":0,"o":"m 263 -17 l 354 182 l 736 182 l 736 279 l 399 279 l 463 418 l 736 418 l 736 515 l 508 515 l 585 682 l 524 711 l 433 515 l 69 515 l 69 418 l 389 418 l 325 279 l 69 279 l 69 182 l 281 182 l 203 13 z "},">":{"ha":754,"x_min":0,"x_max":0,"o":"m 547 451 b 408 574 528 517 479 557 l 97 644 l 97 542 z m 550 282 l 611 293 b 685 365 656 301 685 328 b 611 439 685 403 656 431 l 547 451 b 560 365 556 426 560 397 b 550 282 560 335 557 307 z m 97 89 l 408 156 b 550 282 483 172 531 214 l 97 201 z "},"<":{"ha":754,"x_min":0,"x_max":0,"o":"m 207 451 l 657 542 l 657 644 l 346 574 b 207 451 275 557 226 517 z m 204 282 b 194 365 197 307 194 335 b 207 451 194 397 199 426 l 143 439 b 69 365 99 431 69 403 b 143 293 69 328 99 301 z m 657 89 l 657 201 l 204 282 b 346 156 224 214 271 172 z "},"±":{"ha":833,"x_min":0,"x_max":0,"o":"m 347 285 l 458 285 l 458 439 l 736 439 l 736 536 l 458 536 l 458 694 l 347 694 l 347 536 l 69 536 l 69 439 l 347 439 z m 69 85 l 736 85 l 736 182 l 69 182 z "},"≈":{"ha":678,"x_min":0,"x_max":0,"o":"m 107 453 b 340 499 175 494 258 497 b 188 590 303 544 265 590 b 71 551 138 590 99 575 z m 493 407 b 610 446 543 407 575 421 l 574 544 b 340 499 506 503 424 501 b 493 407 378 453 417 407 z m 107 194 b 340 240 175 236 258 239 b 188 332 303 286 265 332 b 71 293 138 332 99 317 z m 493 149 b 610 188 543 149 575 163 l 574 286 b 340 240 506 244 424 243 b 493 149 378 194 417 149 z "},"~":{"ha":678,"x_min":0,"x_max":0,"o":"m 106 354 b 339 400 174 396 257 399 b 186 492 301 446 264 492 b 69 453 136 492 97 476 z m 492 308 b 608 347 542 308 574 322 l 572 446 b 339 400 504 404 422 403 b 492 308 376 354 415 308 z "},"¬":{"ha":806,"x_min":0,"x_max":0,"o":"m 625 96 l 736 96 l 736 506 l 69 506 l 69 408 l 625 408 z "},"^":{"ha":567,"x_min":0,"x_max":0,"o":"m 42 613 l 151 613 l 283 886 l 415 613 l 525 613 l 342 972 l 226 972 z "},"%":{"ha":1150,"x_min":0,"x_max":0,"o":"m 175 879 b 274 894 204 889 238 894 b 372 879 310 894 343 889 b 274 989 356 950 325 989 b 175 879 222 989 192 950 z m 338 0 l 424 0 l 806 972 l 719 972 z m 176 524 b 161 700 165 569 161 629 b 175 879 161 772 165 832 b 56 700 103 853 56 794 b 176 524 56 618 104 554 z m 371 524 b 492 700 443 554 492 618 b 372 879 492 796 444 854 b 386 700 382 832 386 772 b 371 524 386 628 381 569 z m 778 447 b 876 463 807 457 840 463 b 975 447 913 463 946 457 b 876 557 958 518 928 557 b 778 447 825 557 794 518 z m 274 415 b 371 524 322 415 354 453 b 274 506 342 513 308 506 b 176 524 239 506 206 513 b 274 415 193 453 224 415 z m 779 92 b 764 268 768 138 764 197 b 778 447 764 340 768 400 b 658 268 706 421 658 363 b 779 92 658 186 707 122 z m 974 92 b 1094 268 1046 122 1094 186 b 975 447 1094 364 1047 422 b 989 268 985 400 989 340 b 974 92 989 196 983 138 z m 876 -17 b 974 92 925 -17 957 21 b 876 74 944 81 911 74 b 779 92 842 74 808 81 b 876 -17 796 21 826 -17 z "},"‰":{"ha":1631,"x_min":0,"x_max":0,"o":"m 175 879 b 274 894 204 889 238 894 b 372 879 310 894 343 889 b 274 989 356 950 325 989 b 175 879 222 989 192 950 z m 338 0 l 424 0 l 806 972 l 719 972 z m 176 524 b 161 700 165 569 161 629 b 175 879 161 772 165 832 b 56 700 103 853 56 794 b 176 524 56 618 104 554 z m 371 524 b 492 700 443 554 492 618 b 372 879 492 796 444 854 b 386 700 382 832 386 772 b 371 524 386 628 381 569 z m 778 447 b 876 463 807 457 840 463 b 975 447 913 463 946 457 b 876 557 958 518 928 557 b 778 447 825 557 794 518 z m 1258 447 b 1357 463 1288 457 1321 463 b 1456 447 1393 463 1426 457 b 1357 557 1439 518 1408 557 b 1258 447 1306 557 1275 518 z m 274 415 b 371 524 322 415 354 453 b 274 506 342 513 308 506 b 176 524 239 506 206 513 b 274 415 193 453 224 415 z m 779 92 b 764 268 768 138 764 197 b 778 447 764 340 768 400 b 658 268 706 421 658 363 b 779 92 658 186 707 122 z m 974 92 b 1094 268 1046 122 1094 186 b 975 447 1094 364 1047 422 b 989 268 985 400 989 340 b 974 92 989 196 983 138 z m 1260 92 b 1244 268 1249 138 1244 197 b 1258 447 1244 340 1249 400 b 1139 268 1186 421 1139 363 b 1260 92 1139 186 1188 122 z m 1454 92 b 1575 268 1526 122 1575 186 b 1456 447 1575 364 1528 422 b 1469 268 1465 400 1469 340 b 1454 92 1469 196 1464 138 z m 876 -17 b 974 92 925 -17 957 21 b 876 74 944 81 911 74 b 779 92 842 74 808 81 b 876 -17 796 21 826 -17 z m 1357 -17 b 1454 92 1406 -17 1438 21 b 1357 74 1425 81 1392 74 b 1260 92 1322 74 1289 81 b 1357 -17 1276 21 1307 -17 z "},"@":{"ha":1257,"x_min":0,"x_max":0,"o":"m 629 -103 b 1004 54 778 -103 911 -43 l 972 86 b 631 -57 885 -7 776 -57 b 135 443 356 -57 135 169 b 631 942 135 717 356 942 b 1125 500 917 942 1125 732 b 939 246 1125 324 1025 246 l 825 246 l 825 685 l 740 685 l 740 571 b 597 696 721 636 678 696 b 488 608 539 696 506 663 b 576 622 515 618 547 622 b 740 560 664 622 721 592 l 740 338 b 576 275 721 306 664 275 b 488 289 547 275 515 279 b 597 200 506 233 539 200 b 740 326 678 200 721 261 l 740 201 l 918 201 b 1174 500 1072 201 1174 322 b 629 988 1174 758 943 988 b 83 443 328 988 83 743 b 629 -103 83 142 328 -103 z m 488 289 b 468 450 474 331 468 386 b 488 608 468 513 474 567 b 367 450 421 588 367 538 b 488 289 367 360 421 310 z "},"&":{"ha":892,"x_min":0,"x_max":0,"o":"m 214 865 b 404 893 263 883 326 893 b 578 868 471 893 529 885 b 399 989 542 964 467 989 b 214 865 317 989 242 960 z m 599 696 l 731 696 b 578 868 735 772 678 835 b 599 696 593 826 601 769 z m 200 114 b 185 218 190 143 185 178 b 486 478 185 414 310 478 l 618 478 l 618 242 b 601 114 618 190 613 147 b 742 343 692 146 742 214 l 742 478 l 892 478 l 892 579 l 486 579 b 204 782 299 579 204 640 b 214 865 204 814 208 842 b 86 706 126 832 86 774 b 301 531 86 590 206 547 l 301 521 b 63 283 197 499 63 439 b 200 114 63 199 111 143 z m 400 -17 b 601 114 496 -17 569 14 b 393 88 547 94 476 88 b 200 114 317 88 251 96 b 400 -17 232 19 308 -17 z "},"¶":{"ha":833,"x_min":0,"x_max":0,"o":"m 424 381 l 424 972 b 126 676 260 972 126 839 b 424 381 126 514 260 381 z m 524 -151 l 624 -151 l 624 972 l 524 972 z "},"§":{"ha":704,"x_min":0,"x_max":0,"o":"m 197 882 b 342 906 235 897 283 906 b 476 883 393 906 439 897 b 342 989 458 953 414 989 b 197 882 261 989 211 943 z m 485 726 l 596 726 b 476 883 600 797 556 854 b 488 789 483 857 488 825 b 485 726 488 771 486 749 z m 506 -36 b 604 104 569 -10 604 39 b 496 269 604 176 564 232 b 635 436 597 307 635 371 b 515 601 635 517 585 569 l 311 694 b 193 847 229 732 193 771 b 197 882 193 860 194 871 b 97 750 132 856 97 810 b 222 596 97 676 147 632 b 72 426 101 558 72 483 b 214 257 72 343 128 294 l 379 185 b 510 1 482 140 510 85 b 506 -36 510 -11 508 -24 z m 488 274 b 472 281 483 276 478 278 l 290 361 b 179 492 219 393 179 426 b 231 592 179 543 201 572 l 240 588 l 411 511 b 533 378 513 465 533 422 b 488 274 533 336 514 294 z m 193 -42 b 181 44 185 -15 181 13 b 192 140 181 75 185 107 l 71 140 b 69 117 69 132 69 124 b 193 -42 69 35 118 -15 z m 346 -150 b 506 -36 440 -150 492 -97 b 347 -62 464 -54 411 -62 b 193 -42 289 -62 236 -56 b 346 -150 215 -108 265 -150 z "},"©":{"ha":1076,"x_min":0,"x_max":0,"o":"m 539 -61 b 1007 407 796 -61 1007 150 b 539 875 1007 664 796 875 b 69 407 282 875 69 664 b 539 -61 69 150 282 -61 z m 539 -17 b 125 407 313 -17 125 171 b 539 828 125 639 313 828 b 956 407 767 828 956 639 b 539 -17 956 171 767 -17 z m 433 554 b 544 569 468 565 506 569 b 646 554 578 569 614 564 b 542 656 626 631 586 656 b 433 554 496 656 456 631 z m 435 263 b 418 411 424 299 418 349 b 433 554 418 472 424 519 b 313 411 364 533 313 489 b 435 263 313 331 364 283 z m 658 449 l 761 449 b 646 554 750 501 703 535 b 658 449 653 526 657 492 z m 647 258 b 763 358 704 274 743 304 l 658 358 b 647 258 658 318 654 285 z m 543 164 b 647 258 585 164 628 186 b 544 247 618 250 583 247 b 435 263 506 247 468 251 b 543 164 456 192 494 164 z "},"®":{"ha":703,"x_min":0,"x_max":0,"o":"m 351 397 b 647 693 514 397 647 531 b 351 989 647 856 514 989 b 56 693 189 989 56 856 b 351 397 56 531 189 397 z m 351 436 b 94 693 211 436 94 553 b 351 950 94 835 211 950 b 608 693 493 950 608 835 b 351 436 608 553 493 436 z m 249 553 l 297 553 l 297 660 l 414 660 b 431 658 419 660 425 660 l 431 708 b 414 707 425 707 419 707 l 297 707 l 297 810 l 431 810 b 372 856 426 839 411 856 l 249 856 z m 431 708 b 481 757 460 713 481 729 b 431 810 481 792 456 808 z m 431 553 l 482 553 l 482 601 b 431 658 482 639 460 654 z "},"™":{"ha":896,"x_min":0,"x_max":0,"o":"m 461 899 b 496 903 472 901 483 903 b 528 899 507 903 518 901 l 528 943 b 494 978 528 967 514 978 b 461 942 475 978 461 965 z m 753 899 b 785 903 763 901 774 903 b 819 899 797 903 808 901 l 819 942 b 786 978 819 965 807 978 b 753 943 768 978 753 967 z m 14 917 l 171 917 b 119 972 169 950 154 972 l 14 972 z m 232 917 l 389 917 l 389 972 l 283 972 b 232 917 249 972 233 950 z m 171 636 l 232 636 l 232 917 l 171 917 z m 399 636 l 461 636 l 461 899 b 399 819 426 890 399 868 z m 604 744 l 604 781 b 528 899 604 832 582 885 l 528 879 b 604 744 528 786 565 754 z m 676 744 b 753 879 715 754 753 785 l 753 899 b 676 781 699 885 676 832 z m 819 636 l 882 636 l 882 819 b 819 899 882 868 854 890 z m 640 675 b 676 718 664 675 676 694 l 676 744 b 642 740 664 742 653 740 b 604 744 629 740 617 742 l 604 718 b 640 675 604 694 614 675 z "},"°":{"ha":654,"x_min":0,"x_max":0,"o":"m 326 501 b 571 744 461 501 571 611 b 326 989 571 879 461 989 b 83 744 193 989 83 879 b 326 501 83 611 193 501 z m 326 588 b 169 746 240 588 169 658 b 326 904 169 833 240 904 b 486 746 415 904 486 833 b 326 588 486 658 415 588 z "},"|":{"ha":243,"x_min":0,"x_max":0,"o":"m 69 -278 l 174 -278 l 174 972 l 69 972 z "},"¦":{"ha":243,"x_min":0,"x_max":0,"o":"m 69 521 l 174 521 l 174 972 l 69 972 z m 69 -278 l 174 -278 l 174 174 l 69 174 z "},"†":{"ha":726,"x_min":0,"x_max":0,"o":"m 310 176 l 414 176 l 414 649 l 643 649 l 643 753 l 414 753 l 414 972 l 310 972 l 310 753 l 83 753 l 83 649 l 310 649 z "},"‡":{"ha":731,"x_min":0,"x_max":0,"o":"m 314 176 l 418 176 l 418 407 l 643 407 l 643 511 l 418 511 l 418 649 l 647 649 l 647 753 l 418 753 l 418 972 l 314 972 l 314 753 l 88 753 l 88 649 l 314 649 l 314 511 l 83 511 l 83 407 l 314 407 z "},"̈":{"ha":0,"x_min":0,"x_max":0,"o":"m -436 813 l -311 813 l -311 942 l -436 942 z m -214 813 l -86 813 l -86 942 l -214 942 z "},"̇":{"ha":0,"x_min":0,"x_max":0,"o":"m -204 832 l -71 832 l -71 972 l -204 972 z "},"̀":{"ha":0,"x_min":0,"x_max":0,"o":"m -69 774 l -186 972 l -357 972 l -357 964 l -76 774 z "},"́":{"ha":0,"x_min":0,"x_max":0,"o":"m -353 774 l -346 774 l -65 964 l -65 972 l -236 972 z "},"̋":{"ha":0,"x_min":0,"x_max":0,"o":"m -564 774 l -557 774 l -292 964 l -292 972 l -461 972 z m -353 774 l -346 774 l -81 964 l -81 972 l -250 972 z "},"̂":{"ha":0,"x_min":0,"x_max":0,"o":"m -222 972 l -346 972 l -471 782 l -464 782 l -283 899 l -104 782 l -97 782 z "},"̌":{"ha":0,"x_min":0,"x_max":0,"o":"m -321 782 l -197 782 l -72 972 l -79 972 l -260 856 l -439 972 l -446 972 z "},"̆":{"ha":0,"x_min":0,"x_max":0,"o":"m -269 761 b -69 944 -150 761 -69 844 l -162 944 b -269 842 -162 888 -200 842 b -376 944 -339 842 -376 888 l -469 944 b -269 761 -469 844 -389 761 z "},"̊":{"ha":0,"x_min":0,"x_max":0,"o":"m -167 793 b -69 892 -114 793 -69 838 b -167 989 -69 944 -114 989 b -265 892 -221 989 -265 944 b -167 793 -265 838 -221 793 z "},"̃":{"ha":0,"x_min":0,"x_max":0,"o":"m -411 811 l -247 876 b -333 944 -261 917 -294 944 b -422 858 -376 944 -422 913 b -411 811 -422 843 -418 828 z m -161 808 b -72 893 -112 808 -72 846 b -83 942 -72 907 -76 924 l -247 876 b -161 808 -232 838 -200 808 z "},"̄":{"ha":0,"x_min":0,"x_max":0,"o":"m -493 850 l -69 850 l -69 928 l -493 928 z "},"̧":{"ha":0,"x_min":0,"x_max":0,"o":"m -164 -294 b -42 -172 -96 -294 -42 -240 b -164 -50 -42 -104 -96 -50 z "},"´":{"ha":422,"x_min":0,"x_max":0,"o":"m 69 774 l 76 774 l 357 964 l 357 972 l 186 972 z "},"˘":{"ha":539,"x_min":0,"x_max":0,"o":"m 269 761 b 469 944 389 761 469 844 l 376 944 b 269 842 376 888 339 842 b 163 944 200 842 163 888 l 69 944 b 269 761 69 844 150 761 z "},"ˇ":{"ha":568,"x_min":0,"x_max":0,"o":"m 222 782 l 346 782 l 471 972 l 464 972 l 283 856 l 104 972 l 97 972 z "},"¸":{"ha":206,"x_min":0,"x_max":0,"o":"m 42 -294 b 164 -172 110 -294 164 -240 b 42 -50 164 -104 110 -50 z "},"ˆ":{"ha":543,"x_min":0,"x_max":0,"o":"m 321 964 l 197 964 l 72 774 l 79 774 l 260 890 l 439 774 l 446 774 z "},"¨":{"ha":528,"x_min":0,"x_max":0,"o":"m 89 804 l 214 804 l 214 933 l 89 933 z m 311 804 l 439 804 l 439 933 l 311 933 z "},"˙":{"ha":272,"x_min":0,"x_max":0,"o":"m 69 832 l 203 832 l 203 972 l 69 972 z "},"`":{"ha":422,"x_min":0,"x_max":0,"o":"m 353 774 l 236 972 l 65 972 l 65 964 l 346 774 z "},"˝":{"ha":647,"x_min":0,"x_max":0,"o":"m 83 774 l 90 774 l 356 964 l 356 972 l 186 972 z m 294 774 l 301 774 l 567 964 l 567 972 l 397 972 z "},"¯":{"ha":563,"x_min":0,"x_max":0,"o":"m 69 850 l 493 850 l 493 928 l 69 928 z "},"˛":{"ha":407,"x_min":0,"x_max":0,"o":"m 200 -294 b 365 -144 303 -294 365 -229 l 271 -144 b 206 -212 269 -185 249 -212 b 143 -146 164 -212 143 -182 b 276 0 143 -62 201 -15 l 276 25 b 42 -167 147 14 42 -46 b 200 -294 42 -237 100 -294 z "},"˚":{"ha":335,"x_min":0,"x_max":0,"o":"m 168 793 b 265 892 221 793 265 838 b 168 989 265 944 221 989 b 69 892 114 989 69 944 b 168 793 69 838 114 793 z "},"˜":{"ha":494,"x_min":0,"x_max":0,"o":"m 83 836 l 247 901 b 161 969 233 942 200 969 b 72 883 118 969 72 938 b 83 836 72 868 76 853 z m 333 833 b 422 918 382 833 422 871 b 411 967 422 932 418 949 l 247 901 b 333 833 263 863 294 833 z "}}}
